<svg xmlns="http://www.w3.org/2000/svg" viewBox="0 0 51.96 51.95"><defs><style>.cls-1{fill:none;stroke:#fff;stroke-width:3px;}</style></defs><title>工作區域 72</title><g id="圖層_5" data-name="圖層 5"><path class="cls-1" d="M43.28,8.68A24.46,24.46,0,0,0,8.48,43.07V36a6.69,6.69,0,0,1,4.31-6,44.63,44.63,0,0,1,25.45,0,6.68,6.68,0,0,1,4.3,6v7.92c.26-.24.53-.46.78-.71a24.42,24.42,0,0,0,0-34.55ZM25.51,27.92a8.65,8.65,0,1,1,8.66-8.65A8.65,8.65,0,0,1,25.51,27.92Z"/><path class="cls-1" d="M38.24,30.07a44.63,44.63,0,0,0-25.45,0,6.69,6.69,0,0,0-4.31,6v7a24.62,24.62,0,0,0,7.83,5.39v0a24.37,24.37,0,0,0,18.41.36v0a24.25,24.25,0,0,0,7.82-4.88V36A6.68,6.68,0,0,0,38.24,30.07Z"/><path class="cls-1" d="M25.51,10.62a8.65,8.65,0,1,0,8.66,8.65A8.65,8.65,0,0,0,25.51,10.62Z"/></g></svg>