<svg xmlns="http://www.w3.org/2000/svg" viewBox="0 0 132 132"><defs><style>.cls-1{fill:#fff;}.cls-2{fill:#282d33;}.cls-3{fill:#a5acad;}.cls-4{fill:#efbb4f;}</style></defs><title>icon</title><g id="標準"><path class="cls-1" d="M71.82,78v-4.7a21.26,21.26,0,0,0,4-2L86.3,58.87V43.44h0l-.08-.93H84a5.9,5.9,0,0,0-5,2.74v-3h0V24.37a4,4,0,0,0-7.19-2.48V18.26a4,4,0,1,0-8.06,0V19.4a4,4,0,0,0-7.19,2.48v5.19a4,4,0,0,0-7.18,2.48V63.7a9.88,9.88,0,0,0,3.81,7.83V78Z"/><path class="cls-2" d="M56.07,77.83H51.74V72a11.5,11.5,0,0,1-3.82-8.6V41.92h4.34V63.41a7.21,7.21,0,0,0,2.94,5.84l.87.66Z"/><path class="cls-2" d="M73.7,77.83H69.36V70.9L71,70.5a16.68,16.68,0,0,0,3.35-1.63l9.47-11.26V51.08l-.16,0,.16-1.71V44.89A3.22,3.22,0,0,0,81,48.09v7.28l-.08,1.83-4.33-.09,0-15.18h3.29a7.51,7.51,0,0,1,4.35-1.39H88l0,.17h.12v1.86l.13,2-.14,0v3.21l.13,0-.13,1.72v9.6l-10.93,13-.29.18a27.67,27.67,0,0,1-3.26,1.76Z"/><rect class="cls-3" x="43.33" y="77.15" width="32.88" height="42.58"/><path class="cls-2" d="M59.33,42.05H55V29.26a1.37,1.37,0,1,0-2.73,0V42.05H47.92V29.26a5.71,5.71,0,0,1,11.41,0Z"/><path class="cls-2" d="M66.51,42.05H62.18V21.58a1.37,1.37,0,0,0-2.73,0V42.05H55.11V21.58a5.7,5.7,0,0,1,11.4,0Z"/><path class="cls-2" d="M73.7,42.05H69.37V18a1.37,1.37,0,0,0-2.74,0V42.05H62.3V18a5.7,5.7,0,1,1,11.4,0Z"/><path class="cls-2" d="M80.89,42.05H76.55v-18a1.37,1.37,0,1,0-2.73,0v18H69.49v-18a5.7,5.7,0,1,1,11.4,0Z"/><path class="cls-1" d="M25.08,119.73v-1.44a21.9,21.9,0,0,1-4-2L10.6,103.89V88.45h0l.08-.94h2.26a5.87,5.87,0,0,1,5,2.75v-3h0V69.39a4,4,0,0,1,7.18-2.48V63.27a4,4,0,0,1,8.07,0v1.15a4,4,0,0,1,7.18,2.47v5.2a4,4,0,0,1,7.19,2.47v34.16a9.88,9.88,0,0,1-3.81,7.83v3.18Z"/><path class="cls-2" d="M45.16,119.6H40.83v-4.67l.87-.66a7.24,7.24,0,0,0,2.94-5.84V86.94H49v21.49a11.49,11.49,0,0,1-3.81,8.6Z"/><path class="cls-2" d="M24.85,119.73l-.46-.13H23.2v-.46a28.15,28.15,0,0,1-3.27-1.76l-.28-.18-10.93-13V89.65l-.13,0,.13-2.34V85.78h.09v-.22h3.86A7.54,7.54,0,0,1,17,86.94h3.29l0,15.19-4.34.08-.07-1.73V93.1a3.23,3.23,0,0,0-2.84-3.19v4.37L13.33,96l-.27.09v6.59l9.47,11.26a16.68,16.68,0,0,0,3.35,1.63l1.65.4v3.68H24.89Z"/><path class="cls-2" d="M49,87.07H44.64V74.27a1.37,1.37,0,0,0-2.73,0v12.8H37.57V74.27a5.7,5.7,0,1,1,11.4,0Z"/><path class="cls-2" d="M41.79,87.07H37.45V66.6a1.37,1.37,0,0,0-2.73,0V87.07H30.38V66.6a5.71,5.71,0,0,1,11.41,0Z"/><path class="cls-2" d="M34.6,87.07H30.26V63a1.37,1.37,0,0,0-2.73,0V87.07H23.2V63a5.7,5.7,0,0,1,11.4,0Z"/><path class="cls-2" d="M27.41,87.07H23.07v-18a1.37,1.37,0,1,0-2.73,0v18H16v-18a5.7,5.7,0,0,1,11.4,0Z"/><path class="cls-1" d="M99.51,111.57v-4.69a22.58,22.58,0,0,1-4-2L85,92.48V77h0l.08-.93h2.26a5.9,5.9,0,0,1,5,2.74v-3h0V58a4,4,0,0,1,7.18-2.48V51.86a4,4,0,0,1,8.07,0V53a4,4,0,0,1,7.19,2.48v5.19a4,4,0,0,1,7.18,2.48V97.3a9.85,9.85,0,0,1-3.81,7.83v6.44Z"/><path class="cls-2" d="M119.59,111.43h-4.33v-7.92l.87-.65A7.25,7.25,0,0,0,119.07,97V75.52h4.34V97a11.54,11.54,0,0,1-3.82,8.61Z"/><path class="cls-2" d="M102,111.43H97.63v-3.7A29.35,29.35,0,0,1,94.37,106l-.29-.18-10.93-13V83.2L83,81.51l.15-.05V78.23l-.12,0,.12-2.33V74.31h.1v-.16h3.85a7.54,7.54,0,0,1,4.36,1.38h3.29l0,15.18-4.33.09-.08-1.74V81.69a3.21,3.21,0,0,0-2.84-3.19v4.43l.11,1.69-.11,0v6.56L97,102.47a15.66,15.66,0,0,0,3.35,1.63l1.66.41Z"/><rect class="cls-4" x="88.61" y="110.76" width="32.88" height="8.97"/><path class="cls-2" d="M123.41,75.65h-4.34V62.86a1.37,1.37,0,1,0-2.73,0V75.65H112V62.86a5.71,5.71,0,0,1,11.41,0Z"/><path class="cls-2" d="M116.22,75.65h-4.34V55.19a1.37,1.37,0,1,0-2.73,0V75.65h-4.33V55.19a5.7,5.7,0,0,1,11.4,0Z"/><path class="cls-2" d="M109,75.65h-4.34V51.57a1.37,1.37,0,0,0-2.73,0V75.65H97.63V51.57a5.7,5.7,0,0,1,11.4,0Z"/><path class="cls-2" d="M101.84,75.65H97.51v-18a1.37,1.37,0,0,0-2.73,0v18H90.44v-18a5.7,5.7,0,0,1,11.4,0Z"/></g></svg>