<svg xmlns="http://www.w3.org/2000/svg" viewBox="0 0 132 132"><defs><style>.cls-1{fill:#fff;}.cls-2{fill:#282d33;}.cls-3{fill:#efbb4f;}.cls-4{fill:#a5acad;}</style></defs><title>icon</title><g id="標準"><polygon class="cls-1" points="70.3 49.53 46.21 49.53 33.26 65.73 25.76 59.73 41.6 39.94 70.3 39.94 70.3 49.53"/><polygon class="cls-2" points="33.63 69.09 22.41 60.11 40.45 37.55 70.3 37.55 70.3 42.33 42.75 42.33 29.12 59.36 32.88 62.37 45.06 47.15 70.3 47.15 70.3 51.92 47.36 51.92 33.63 69.09"/><path class="cls-1" d="M89.47,33.93a10.3,10.3,0,1,1-10.3-10.31A10.3,10.3,0,0,1,89.47,33.93Z"/><path class="cls-2" d="M79.17,46.62A12.69,12.69,0,1,1,91.86,33.93,12.7,12.7,0,0,1,79.17,46.62Zm0-20.61a7.92,7.92,0,1,0,7.91,7.92A7.92,7.92,0,0,0,79.17,26Z"/><polygon class="cls-1" points="28.83 118.03 22.54 110.78 42.47 93.48 46.13 73.82 55.57 75.58 51.29 98.54 28.83 118.03"/><path class="cls-2" d="M28.59,121.4l-9.42-10.86,21.1-18.31L44.22,71l14.13,2.64L53.48,99.79ZM25.91,111l3.16,3.64,20-17.38,3.69-19.79L48,76.6,44.66,94.74Z"/><path class="cls-1" d="M94,75v-9.6h-17v-18l-6.83-6.74L49.86,61.33a14.39,14.39,0,0,0,0,20.36l16,16L64.48,119.3l9.58.61L75.71,94,56.64,74.9a4.8,4.8,0,0,1,0-6.81L67.65,57V75Z"/><path class="cls-2" d="M76.29,122.44,62,121.53,63.4,98.61,48.17,83.38a16.78,16.78,0,0,1,0-23.74L70.23,37.28l9.25,9.12V63.05h17V77.43H65.26V62.79l-6.89,7a2.42,2.42,0,0,0-.74,1.74,2.38,2.38,0,0,0,.7,1.7L78.16,93ZM67,117.07l4.81.3,1.43-22.48L55,76.59a7.18,7.18,0,0,1,0-10.18L70,51.14V72.65H91.65V67.83h-17V48.39L70.28,44,51.56,63a12,12,0,0,0,0,17L68.31,96.76Z"/><circle class="cls-3" cx="112.54" cy="107.21" r="14.33"/><rect class="cls-2" x="15.9" y="75.11" width="15.87" height="4.78"/><rect class="cls-2" x="20.48" y="85.26" width="15.87" height="4.78"/><rect class="cls-2" x="5.13" y="75.11" width="6.23" height="4.78"/><rect class="cls-2" x="92.33" y="101.78" width="15.87" height="4.78"/><rect class="cls-2" x="96.91" y="111.93" width="15.87" height="4.78"/><rect class="cls-2" x="81.56" y="101.78" width="6.23" height="4.78"/><path class="cls-4" d="M50.3,25.12a4.07,4.07,0,0,0,.06-.61,4.27,4.27,0,0,0-4.27-4.27,4.17,4.17,0,0,0-1.33.23A8.85,8.85,0,0,0,36,12.91a9.07,9.07,0,0,0-1.9.21A10.82,10.82,0,0,0,15.59,17.8h0a6.41,6.41,0,0,0-6.42,6.41,6.84,6.84,0,0,0,.07.91Z"/></g></svg>