<svg xmlns="http://www.w3.org/2000/svg" viewBox="0 0 132 132"><defs><style>.cls-1{fill:#a5acad;}.cls-2{fill:#fff;}.cls-3{fill:#282d33;}.cls-4{fill:#efbb4f;}</style></defs><title>icon</title><g id="標準"><rect class="cls-1" x="8.9" y="27.55" width="114.2" height="79.82"/><path class="cls-2" d="M58.14,22.61H16.8V99.45H58.14a8.08,8.08,0,0,1,8.08,8.08V30.69A8.08,8.08,0,0,0,58.14,22.61Z"/><path class="cls-3" d="M68.45,107.53H64a5.87,5.87,0,0,0-5.86-5.86H14.57V20.38H58.14A10.33,10.33,0,0,1,68.45,30.69ZM19,97.22H58.14A10.28,10.28,0,0,1,64,99.05V30.69a5.87,5.87,0,0,0-5.86-5.86H19Z"/><path class="cls-2" d="M73.87,22.61h41.34V99.45H73.87a8.09,8.09,0,0,0-8.09,8.08V30.69A8.09,8.09,0,0,1,73.87,22.61Z"/><path class="cls-3" d="M68,107.53H63.55V30.69A10.33,10.33,0,0,1,73.87,20.38h43.56v81.29H73.87A5.87,5.87,0,0,0,68,107.53Zm5.87-82.7A5.87,5.87,0,0,0,68,30.69V99.06a10.25,10.25,0,0,1,5.87-1.84H113V24.83Z"/><rect class="cls-3" x="25.02" y="31.04" width="19.24" height="4.45"/><rect class="cls-3" x="25.02" y="43.54" width="32.41" height="4.45"/><rect class="cls-3" x="25.02" y="52.72" width="32.41" height="4.45"/><rect class="cls-3" x="25.02" y="61.9" width="23.14" height="4.45"/><path class="cls-2" d="M90.86,102.09a17.23,17.23,0,0,0-5.13.77l5.13,14,5.12-14A17.21,17.21,0,0,0,90.86,102.09Z"/><path class="cls-3" d="M90.86,123.34l-8-21.9,2.22-.7a19.57,19.57,0,0,1,11.59,0l2.21.7Zm-2.17-18.88,2.17,5.93L93,104.46A15.77,15.77,0,0,0,88.69,104.46Z"/><rect class="cls-4" x="83.04" y="72.36" width="15.63" height="29.16"/><path class="cls-1" d="M85.16,9.6v5.66H96.49V9.6c0-.53-.56-.94-1.25-.94H86.41C85.71,8.66,85.15,9.07,85.16,9.6Z"/><rect class="cls-2" x="85.11" y="15.02" width="11.48" height="7.88"/><path class="cls-3" d="M98.82,25.13H82.89V12.79H98.82ZM87.34,20.68h7V17.24h-7Z"/><polygon class="cls-4" points="98.67 85.05 98.67 25.08 83.04 25.08 83.04 85.98 98.67 85.05"/></g></svg>