<svg xmlns="http://www.w3.org/2000/svg" viewBox="0 0 132 132"><defs><style>.cls-1{fill:#efbb4f;}.cls-2{fill:#282d33;}.cls-3{fill:#a5acad;}</style></defs><title>icon</title><g id="標準"><path class="cls-1" d="M62.53,96.15a13.8,13.8,0,1,1,0-27.59,13.37,13.37,0,0,1,1.42.07V65.7a26.4,26.4,0,0,0-52.8,0v2.93a13.56,13.56,0,0,1,1.43-.07,13.8,13.8,0,1,1,0,27.59,13.55,13.55,0,0,1-1.43-.08v8.64a26.4,26.4,0,1,0,52.8,0V96.07A13.37,13.37,0,0,1,62.53,96.15Z"/><rect class="cls-2" x="30.35" y="0.89" width="5.37" height="106.08"/><rect class="cls-2" x="39.38" y="0.89" width="5.37" height="106.08"/><rect class="cls-2" x="27.09" y="19.13" width="20.93" height="5.37"/><rect class="cls-2" x="27.09" y="10.1" width="20.93" height="5.37"/><rect class="cls-2" x="30.89" y="1.06" width="13.32" height="5.37"/><rect class="cls-2" x="27.09" y="103.8" width="20.93" height="5.37"/><path class="cls-3" d="M68.81,82.18a6,6,0,1,1-6-6.05A6,6,0,0,1,68.81,82.18Z"/><path class="cls-2" d="M62.77,96.73A14.56,14.56,0,1,1,77.32,82.18,14.57,14.57,0,0,1,62.77,96.73Zm0-23.73A9.18,9.18,0,1,0,72,82.18,9.19,9.19,0,0,0,62.77,73Z"/><path class="cls-3" d="M105.05,70.05a6,6,0,1,1-6-6A6,6,0,0,1,105.05,70.05Z"/><path class="cls-2" d="M99,84.6a14.56,14.56,0,1,1,14.56-14.55A14.57,14.57,0,0,1,99,84.6Zm0-23.74a9.18,9.18,0,1,0,9.19,9.19A9.19,9.19,0,0,0,99,60.86Z"/><polygon class="cls-2" points="77.27 83.49 71.89 83.49 71.89 34.13 113.55 18.97 113.55 70.29 108.17 70.29 108.17 26.65 77.27 37.9 77.27 83.49"/><rect class="cls-2" x="82.49" y="34.79" width="38.6" height="5.37" transform="translate(-6.68 37.05) rotate(-19.99)"/></g></svg>