<svg xmlns="http://www.w3.org/2000/svg" viewBox="0 0 132 132"><defs><style>.cls-1{fill:#282d33;}.cls-2{fill:#a5acad;}.cls-3{fill:#fff;}.cls-4{fill:#efbb4f;}</style></defs><title>icon</title><g id="標準"><path class="cls-1" d="M65.6,124.41h0l-1.4,0a42.76,42.76,0,1,1,1.4,0Zm0-80.69a38,38,0,1,0,1.25,0Z"/><path class="cls-2" d="M102.07,72.26,98.72,78,92.91,88.94l-3.28-7-5.28,3.33-3.3-6.35L78,82.57l-1.49-.42-4.73-2,.77,5,3.63,1.56-6.88,15.53L66.41,104,64,98.05l-1.4-9.84-4.81-.36-2-3.69,2.94-7.4L62.84,76l2.45,1.72,6-1.26-6.4-3.79-5.42-1.1-.23-1.65L64.55,67l-2.12-3.51,5.48-4.66L73.53,61l9.54-2.65s3.93-1.94,8.32-4.06A37.83,37.83,0,0,1,102.07,72.26Z"/><path class="cls-2" d="M42.84,51.66,40.57,55.3,36.63,62a.57.57,0,0,0,0,.59l2.48,4.26a.63.63,0,0,0,.49.29.61.61,0,0,0,.5-.26l2.31-3.56,4.28,5.55-8.86,7.43-4.89.3a.59.59,0,0,0-.51.37l-1.14,3a.58.58,0,0,0,.08.55l3.12,4.25-5.18-2.59-1.43-1.86A37.64,37.64,0,0,1,42.84,51.66Z"/><path class="cls-2" d="M40.3,97.74l-3.13-6.6,3.72-7.74,10,9.59-9.19,17.47L40,106.38,40.35,98A.52.52,0,0,0,40.3,97.74Z"/><path class="cls-2" d="M50.09,62.43l-4-9c6.25-2.94,10.4-3.51,12-3.61L56,57.93Z"/><path class="cls-3" d="M66,27l-17,.16c-7.28.2-13.13,4.4-13.06,9.3l.15,15.08c.08,4.89,2.52,8.57,12.78,13.3A80.32,80.32,0,0,0,66.4,70.89Z"/><path class="cls-1" d="M65.93,73.19A83.22,83.22,0,0,1,47.85,67c-10.2-4.71-14-8.88-14.13-15.39l-.14-15.1c-.1-6.29,6.63-11.42,15.33-11.66l17-.16L68.31,27l.43,43.91ZM63.65,29.35,49,29.49c-5.86.16-10.8,3.33-10.75,6.93l.15,15.09c.05,3.14,1,6.37,11.42,11.2A83.52,83.52,0,0,0,64,67.94Z"/><path class="cls-3" d="M65.94,27l17-.16c7.28.05,13.21,4.13,13.23,9s.09,10.06.14,15.08S94,59.57,83.8,64.5a81,81,0,0,1-17.44,6.39Z"/><path class="cls-1" d="M66.87,73.18,64,70.92,63.6,27l2.31-2.36,17-.16c8.74.07,15.57,5.06,15.6,11.37l.14,15.07c0,6.52-3.72,10.77-13.83,15.67A83,83,0,0,1,66.87,73.18ZM68.3,29.3l.37,38.6a84.12,84.12,0,0,0,14.11-5.51C93.14,57.36,94,54.12,94,51l-.14-15.07c0-3.6-5-6.68-10.91-6.73Z"/><path class="cls-3" d="M66.21,53.79,9.4,32.49,65.79,10.1,122.6,31.4Z"/><path class="cls-1" d="M66.23,56.29,2.9,32.55l62.86-25L129.1,31.33ZM15.9,32.43,66.19,51.28,116.1,31.46,65.81,12.6Z"/><polygon class="cls-4" points="98.25 62.69 98.13 41.74 63.44 28.73 65.09 24.35 102.79 38.49 102.93 62.66 98.25 62.69"/><path class="cls-3" d="M72.18,26.1c0,1.74-2.75,3.17-6.17,3.2S59.8,28,59.78,26.22,62.53,23.06,66,23,72.17,24.37,72.18,26.1Z"/><path class="cls-1" d="M65.9,31.64c-4.87,0-8.42-2.27-8.46-5.39s3.54-5.51,8.49-5.56h.14c4.87,0,8.42,2.26,8.45,5.39S71,31.59,66,31.64ZM62.42,26.2A7.07,7.07,0,0,0,65.9,27V29.3L66,27a7,7,0,0,0,3.56-.83,7.13,7.13,0,0,0-3.48-.76A7.24,7.24,0,0,0,62.42,26.2Z"/><path class="cls-4" d="M107.91,74.78V64.63c0-3.2-3.13-5.79-7-5.79s-7,2.59-7,5.79V74.78Z"/></g></svg>