<svg xmlns="http://www.w3.org/2000/svg" viewBox="0 0 132 132"><defs><style>.cls-1{fill:#a5acad;}.cls-2{fill:#fff;}.cls-3{fill:#282d33;}.cls-4{fill:#efbb4f;}</style></defs><title>icon</title><g id="標準"><rect class="cls-1" x="9.76" y="57.31" width="45.69" height="61.72"/><rect class="cls-2" x="15.25" y="55.85" width="40.2" height="57.05"/><rect class="cls-3" x="30.63" y="51.4" width="8.3" height="4.39"/><path class="cls-3" d="M55.85,119.05H51.46a4,4,0,0,0-4-4H13.36V51.4h8.48v4.4H17.76v54.82H47.42a8.36,8.36,0,0,1,4,1V79.21h4.39Z"/><rect class="cls-3" x="21.9" y="60.63" width="17.03" height="4.39"/><rect class="cls-3" x="21.9" y="68.7" width="17.03" height="4.39"/><rect class="cls-3" x="21.9" y="76.65" width="24.98" height="4.39"/><rect class="cls-3" x="21.9" y="84.59" width="24.98" height="4.39"/><rect class="cls-3" x="21.9" y="92.54" width="24.98" height="4.39"/><rect class="cls-3" x="21.9" y="100.48" width="24.98" height="4.39"/><path class="cls-2" d="M53.75,33.89a34.81,34.81,0,0,1,55.07,28.32c0,.53,0,1,0,1.58l4.86,8.42L120,83.29H112V97a9.38,9.38,0,0,1-9.39,9.39L87.69,119l-32.2,0Z"/><path class="cls-3" d="M89.89,118.92H85.5v-12.5a2.19,2.19,0,0,1,2.19-2.19h14.87a7.2,7.2,0,0,0,7.19-7.2V83.29a2.2,2.2,0,0,1,2.2-2.2h4.28l-9.35-16.2a2.17,2.17,0,0,1-.29-1.19c0-.5,0-1,0-1.49A32.63,32.63,0,0,0,55,35.67L52.48,32.1A37,37,0,0,1,111,62.21c0,.35,0,.69,0,1l10.94,18.95a2.2,2.2,0,0,1-1.9,3.29h-5.89V97a11.6,11.6,0,0,1-11.59,11.59H89.89Z"/><path class="cls-4" d="M57.87,60A19.41,19.41,0,1,0,77.28,40.58,19.41,19.41,0,0,0,57.87,60Z"/><circle class="cls-2" cx="77.28" cy="59.99" r="10.62"/><path class="cls-3" d="M77.28,72.81A12.82,12.82,0,1,1,90.1,60,12.83,12.83,0,0,1,77.28,72.81Zm0-21.24A8.42,8.42,0,1,0,85.7,60,8.43,8.43,0,0,0,77.28,51.57Z"/><path class="cls-3" d="M47.08,50.63H42.69V47.79a7.14,7.14,0,0,0-7.14-7.14V36.26A11.54,11.54,0,0,1,47.08,47.79Z"/><path class="cls-3" d="M55.45,66.56H51.06V27.14A14.21,14.21,0,0,1,65.25,13v4.4a9.81,9.81,0,0,0-9.8,9.79Z"/><path class="cls-3" d="M49.06,76a6.4,6.4,0,0,1-6.39-6.39V50.12h4.4V69.64a2,2,0,1,0,4,0V58.53h4.39V69.64A6.4,6.4,0,0,1,49.06,76Z"/><path class="cls-3" d="M79.2,47.63H74.81V27.14A9.81,9.81,0,0,0,65,17.35V13A14.21,14.21,0,0,1,79.2,27.14Z"/><path class="cls-3" d="M28.61,55.59H24.22v-7.8A11.54,11.54,0,0,1,35.75,36.26v4.39a7.15,7.15,0,0,0-7.14,7.14Z"/></g></svg>