<svg xmlns="http://www.w3.org/2000/svg" viewBox="0 0 35.34 28.02"><defs><style>.cls-1{fill:none;stroke:#666;stroke-linejoin:round;stroke-width:2px;}</style></defs><title>工作區域 65</title><g id="圖層_5" data-name="圖層 5"><path class="cls-1" d="M10.07,23.24H7.3a6.3,6.3,0,1,1,0-12.59h.13V9.13A8.3,8.3,0,0,1,24,8.84h3.54a6.79,6.79,0,0,1,6.78,6.77v.85a6.8,6.8,0,0,1-6.78,6.78h-2"/><path class="cls-1" d="M15,13.13v7h-2.6a.6.6,0,0,0-.54.4.9.9,0,0,0,.11.91l5.26,5.25a.94.94,0,0,0,1.33,0l5.24-5.25a.9.9,0,0,0,.14-.9.66.66,0,0,0-.64-.41H20.56v-7"/></g></svg>