<?xml version="1.0" encoding="utf-8"?>
<!-- Generator: Adobe Illustrator 19.2.1, SVG Export Plug-In . SVG Version: 6.00 Build 0)  -->
<svg version="1.1" xmlns="http://www.w3.org/2000/svg" xmlns:xlink="http://www.w3.org/1999/xlink" x="0px" y="0px"
	 viewBox="0 0 32 32" style="enable-background:new 0 0 32 32;" xml:space="preserve">
<style type="text/css">
	.st0{fill:#EFF1F6;}
	.st1{fill:#FFFFFF;}
	.st2{fill:#00246A;}
	.st3{fill:#2CA4DE;}
	.st4{fill:#C7CCD3;}
	.st5{fill:#DBDCDC;}
	.st6{fill:none;stroke:#2CA4DE;stroke-width:4.1689;stroke-linecap:round;stroke-linejoin:round;stroke-miterlimit:10;}
	.st7{fill:#FFFFFF;stroke:#ECECED;stroke-width:2.155;stroke-miterlimit:10;}
	.st8{fill:none;stroke:#2CA4DE;stroke-width:3.9852;stroke-miterlimit:10;}
	.st9{fill:none;stroke:#B5B5B5;stroke-width:4.4548;stroke-miterlimit:10;}
	.st10{fill:#B5B5B5;}
	.st11{fill:#222985;}
	.st12{fill:none;stroke:#868686;stroke-width:0.538;stroke-miterlimit:10;}
	.st13{fill:none;stroke:#868686;stroke-width:0.5;stroke-miterlimit:10;}
	.st14{fill:none;stroke:#868686;stroke-width:0.5;stroke-miterlimit:10;stroke-dasharray:3,3;}
	.st15{fill:#231815;}
	.st16{fill:#ECECED;}
	.st17{fill:#182985;}
	.st18{fill:#FFFFFF;stroke:#ECECED;stroke-width:2.216;stroke-miterlimit:10;}
	.st19{fill:#FFFFFF;stroke:#ECECED;stroke-width:1.6131;stroke-miterlimit:10;}
	.st20{fill:none;stroke:#D9DADA;stroke-width:0.5;stroke-miterlimit:10;}
	.st21{fill:#FFFFFF;stroke:#00246A;stroke-miterlimit:10;}
	.st22{fill:#717071;}
	.st23{fill:#C7CCD3;stroke:#FFFFFF;stroke-miterlimit:10;}
	.st24{fill:#FFFFFF;stroke:#00246A;stroke-width:1.0313;stroke-miterlimit:10;}
	.st25{fill:none;stroke:#FFFFFF;stroke-width:1.5458;stroke-linecap:round;stroke-linejoin:round;stroke-miterlimit:10;}
	.st26{fill:#E30012;}
	.st27{fill:#D9DADA;}
	.st28{fill:#F5F5F5;}
	.st29{fill:none;stroke:#9C9C9D;stroke-width:0.2267;stroke-miterlimit:10;}
	.st30{fill:none;stroke:#E30012;stroke-width:1.5336;stroke-linecap:round;stroke-linejoin:round;stroke-miterlimit:10;}
	.st31{fill:none;stroke:#00246A;stroke-width:1.5336;stroke-linecap:round;stroke-linejoin:round;stroke-miterlimit:10;}
	.st32{fill:#1D2085;}
	.st33{clip-path:url(#SVGID_4_);}
	.st34{fill:#FFFFFF;stroke:#ECECED;stroke-width:2.2583;stroke-miterlimit:10;}
	.st35{fill:#FFFFFF;stroke:#ECECED;stroke-width:1.7531;stroke-miterlimit:10;}
	.st36{fill:#424242;}
	.st37{fill:none;stroke:#E30012;stroke-width:4;stroke-linecap:round;stroke-linejoin:round;stroke-miterlimit:10;}
	.st38{fill:none;stroke:#9C9C9D;stroke-width:0.3187;stroke-miterlimit:10;}
	.st39{fill:#868686;}
	.st40{fill:none;stroke:#868686;stroke-width:1.0052;stroke-miterlimit:10;}
	.st41{fill:none;stroke:#868686;stroke-width:0.9343;stroke-miterlimit:10;}
	.st42{fill:none;stroke:#868686;stroke-width:0.9343;stroke-miterlimit:10;stroke-dasharray:5.5924,5.5924;}
	.st43{fill:none;stroke:#000000;stroke-miterlimit:10;}
	.st44{clip-path:url(#SVGID_8_);}
	.st45{fill:#036EB5;}
	.st46{fill:#FFFFFF;stroke:#ECECED;stroke-miterlimit:10;}
	.st47{clip-path:url(#SVGID_10_);}
	.st48{clip-path:url(#SVGID_12_);}
	.st49{fill:none;stroke:#00246A;stroke-width:1.1547;stroke-miterlimit:10;}
	.st50{fill:none;stroke:#00246A;stroke-width:1.0223;stroke-miterlimit:10;}
	.st51{fill:none;stroke:#868686;stroke-width:1.0007;stroke-miterlimit:10;}
	.st52{fill:none;stroke:#868686;stroke-width:1.0007;stroke-miterlimit:10;stroke-dasharray:6.009,6.009;}
	.st53{fill:none;stroke:#00246A;stroke-width:2;stroke-miterlimit:10;}
	.st54{fill:none;stroke:#E30012;stroke-width:6.0496;stroke-linecap:round;stroke-linejoin:round;stroke-miterlimit:10;}
	.st55{fill:none;stroke:#D9DADA;stroke-width:1.2382;stroke-miterlimit:10;}
	.st56{fill-rule:evenodd;clip-rule:evenodd;fill:#C7CCD3;}
	.st57{fill:#989B9B;}
	.st58{fill:none;stroke:#D9DADA;stroke-width:0.8835;stroke-miterlimit:10;}
	.st59{fill:#C7CCD3;stroke:#FFFFFF;stroke-width:0.9326;stroke-miterlimit:10;}
</style>
<g id="圖層_1">
</g>
<g id="圖層_2">
</g>
<g id="圖層_3">
	<g>
		<path class="st4" d="M29.7,6H2.3c-1,0-1.9,0.8-1.9,1.9v16.2c0,1,0.8,1.9,1.9,1.9h27.5c1,0,1.9-0.8,1.9-1.9V7.9
			C31.6,6.8,30.8,6,29.7,6z M14.4,21.9c0,0.2-0.2,0.4-0.4,0.4H2.8c-0.2,0-0.4-0.2-0.4-0.4V8.8c0-0.2,0.2-0.4,0.4-0.4H14
			c0.2,0,0.4,0.2,0.4,0.4V21.9z M27.5,17.8H16.8c-0.3,0-0.6-0.3-0.6-0.6c0-0.3,0.3-0.6,0.6-0.6h10.6c0.3,0,0.6,0.3,0.6,0.6
			C28.1,17.6,27.8,17.8,27.5,17.8z M27.5,14.7H16.8c-0.3,0-0.6-0.3-0.6-0.6c0-0.3,0.3-0.6,0.6-0.6h10.6c0.3,0,0.6,0.3,0.6,0.6
			C28.1,14.4,27.8,14.7,27.5,14.7z"/>
		<path class="st4" d="M3.2,19.7c0.1-0.2,0.2-0.3,0.4-0.4c1.1-0.5,2.3-0.9,3.5-1C7,18,7,17.7,6.9,17.4c-0.3-0.2-0.5-0.4-0.5-0.6
			c0-0.3-0.1-0.5-0.1-0.8c0,0-0.1,0.1-0.1,0.1C6.1,16.1,6,16,6,15.8l-0.1-1.2c0-0.1,0.1-0.2,0.2-0.3c0,0,0.1,0,0.1,0
			c0-0.2-0.1-0.5-0.1-0.7c0-0.3-0.2-1.2,0.4-1.7c0.9-0.9,2.8-0.9,3.7,0c0.6,0.5,0.5,1.4,0.4,1.7c0,0.2-0.1,0.5-0.1,0.7
			c0,0,0.1,0,0.1,0c0.1,0,0.2,0.1,0.2,0.3l-0.1,1.2c0,0.1-0.1,0.2-0.3,0.2c-0.1,0-0.1,0-0.1-0.1c0,0.3-0.1,0.5-0.1,0.8
			c0,0.2-0.2,0.5-0.5,0.6c0,0.3-0.1,0.6-0.1,0.9c1.2,0.1,2.4,0.5,3.5,1c0.2,0.1,0.3,0.2,0.4,0.4V9.2H3.2V19.7z"/>
	</g>
</g>
<g id="圖層_4">
</g>
</svg>
