<svg xmlns="http://www.w3.org/2000/svg" viewBox="0 0 34 33.72"><defs><style>.cls-1{fill:#0562ad;}.cls-2{fill:#fff;}</style></defs><title>工作區域 61</title><g id="圖層_5" data-name="圖層 5"><g id="FULL_COLOR_ICON" data-name="FULL COLOR ICON"><rect class="cls-1" width="34" height="33.72" rx="5.49"/><g id="TYPE_A" data-name="TYPE A"><path class="cls-2" d="M29.32,15.38c0-5.5-5.55-10-12.38-10S4.57,9.88,4.57,15.38c0,4.92,4.4,9,10.35,9.83.4.09.95.26,1.09.6a2.61,2.61,0,0,1,0,1.11s-.15.87-.18,1.06-.25,1.21,1.07.66a39.94,39.94,0,0,0,9.73-7.13h0a8.84,8.84,0,0,0,2.65-6.13"/><path class="cls-1" d="M14.43,12.72h-.87a.24.24,0,0,0-.24.24v5.35a.24.24,0,0,0,.24.24h.87a.24.24,0,0,0,.24-.24V13a.24.24,0,0,0-.24-.24"/><path class="cls-1" d="M20.41,12.72h-.87a.24.24,0,0,0-.24.24v3.18l-2.48-3.31v0h0l0,0h-1a.25.25,0,0,0-.25.24v5.35a.25.25,0,0,0,.25.24h.86a.25.25,0,0,0,.25-.24V15.14l2.47,3.31.06.06h1a.24.24,0,0,0,.24-.24V13a.24.24,0,0,0-.24-.24"/><path class="cls-1" d="M12.34,17.21H10V13a.24.24,0,0,0-.24-.24H8.87a.24.24,0,0,0-.24.24v5.35h0a.25.25,0,0,0,.06.17h0a.21.21,0,0,0,.17.07h3.47a.24.24,0,0,0,.24-.24v-.86a.24.24,0,0,0-.24-.24"/><path class="cls-1" d="M25.2,14.06a.24.24,0,0,0,.24-.24V13a.24.24,0,0,0-.24-.24H21.73a.28.28,0,0,0-.17.07h0a.24.24,0,0,0-.07.16h0v5.35h0a.26.26,0,0,0,.07.17h0a.2.2,0,0,0,.16.07H25.2a.24.24,0,0,0,.24-.24v-.86a.24.24,0,0,0-.24-.24H22.84v-.9H25.2a.24.24,0,0,0,.24-.24v-.86A.24.24,0,0,0,25.2,15H22.84v-.91Z"/></g></g></g></svg>