<?xml version="1.0" encoding="utf-8"?>
<!-- Generator: Adobe Illustrator 22.1.0, SVG Export Plug-In . SVG Version: 6.00 Build 0)  -->
<svg version="1.1" id="圖層_1" xmlns="http://www.w3.org/2000/svg" xmlns:xlink="http://www.w3.org/1999/xlink" x="0px" y="0px"
	 viewBox="0 0 317 75" style="enable-background:new 0 0 317 75;" xml:space="preserve">
<style type="text/css">
	.st0{fill:#043785;stroke:#043785;stroke-width:0.25;stroke-miterlimit:10;}
	.st1{fill:#E6A421;}
	.st2{fill:#003F76;}
	.st3{fill:#EE9E18;}
	.st4{fill:none;stroke:#231815;stroke-width:0.9146;}
	.st5{fill:#F9BE00;}
	.st6{fill:#043785;}
	.st7{fill:#FFFFFF;}
	.st8{fill:none;stroke:#FFFFFF;stroke-width:0.4569;}
	.st9{fill:#F0A915;}
</style>
<g>
	<g>
		<g>
			<path class="st0" d="M93.7,17.1h40.4v3.4h-18.8l-0.9,2h14.1v17.8h-16.8c-0.6,0.7-1.2,1.4-1.7,2h16.5c0.3-0.2,0.5-0.5,0.8-0.7
				c0.3,0,0.5,0.1,0.6,0.3l1.4,1.7c0.2,0.3,0.3,0.6,0.3,1c0,0.3-0.4,0.7-1.2,1.1c-2.7,2.3-5.4,4.1-7.9,5.5c4.1,0.9,9.1,1.6,15,2
				l-4.1,4c-6.6-1-11.9-2.2-15.9-3.6c-5,1.8-11.7,3-20.1,3.6l-2.5-4c5.1,0,8.9-0.3,11.5-0.9c2.2-0.3,4.2-0.6,6-1.1
				c-2.1-1.1-4.1-2.4-5.9-3.9c-1.4,1-3.1,1.9-5.1,2.9L96,46.8c2.9-0.9,5.3-2.1,7.2-3.4c1.1-0.7,2.3-1.7,3.6-3.1H100V22.5h10.2l0.9-2
				H93.7V17.1z M104.2,27.8h20.2v-2h-20.2V27.8z M104.2,32.2h20.2v-1.6h-20.2V32.2z M124.3,37.1v-2h-20.2v2H124.3z M107.4,45.6
				c2.6,1.9,5.2,3.3,7.8,4.2c0.1,0,0.1-0.1,0.2-0.1c2-0.8,4.2-2.2,6.8-4.1H107.4z"/>
			<path class="st0" d="M154.3,42.5l3.2,1.6c0.5,0.2,0.7,0.4,0.7,0.6c0,0.3-0.2,0.6-0.7,0.8c-1.7,4.4-3.5,8-5.6,10.9l-3.6-2.2
				C150.6,50.9,152.6,47,154.3,42.5z M151.6,17.1h35.7v23.8h-35.7V17.1z M183.3,37.5v-17h-27.8v17H183.3z M158.1,24.2h9.8
				c0.2-1,0.4-2.1,0.5-3.3l3.4,0.6c0.3,0,0.5,0.2,0.5,0.5c0,0.2-0.2,0.5-0.6,0.9c-0.1,0.4-0.1,0.9-0.2,1.3h9.4v3.6H171
				c1.6,1.3,3.1,2.3,4.5,3.1c1.7,0.9,4,1.8,6.8,2.7l-3.2,3.4c-2.6-1.1-4.8-2.3-6.5-3.6c-1.2-0.8-2.3-1.7-3.2-2.8
				c-0.6,1.1-1.3,2.1-2.1,2.7c-1.3,1.5-4.1,2.8-8.3,3.7l-2.2-3.2c2.7-0.5,5-1.2,6.8-2.3c1.4-0.9,2.4-2.1,3.2-3.6h-8.7V24.2z
				 M158.8,42l4.5,0.6c0.6,0.1,0.9,0.3,0.9,0.7c0,0.4-0.3,0.8-0.8,1.2c-0.5,0.3-0.7,0.8-0.7,1.5v3.6c0,1.2,0.2,2.1,0.6,2.7
				c0.4,0.5,1.2,0.8,2.5,0.8h9.9c1.5,0,2.7-0.2,3.4-0.7c0.8-0.4,1.5-1.5,2-3.3l3.4,1.4c-1-1.8-2.1-3.5-3.2-5l2.9-2.4
				c2.1,2.6,4.2,5.9,6.3,10l-3.6,2.3c-0.7-1.5-1.4-2.9-2.1-4.3c-0.7,2.4-1.6,4-2.7,4.7c-1,0.7-2.2,1.1-3.6,1.1h-14.2
				c-1.8,0-3.2-0.6-4.1-1.7c-0.8-1.1-1.3-2.6-1.3-4.5V42z M168.9,41.5c3.2,1.5,6.3,3.5,9.4,5.9l-3.6,2.3c-2.6-2.3-5.5-4.3-8.6-5.9
				L168.9,41.5z"/>
			<path class="st0" d="M211.1,30.8h11.6c0-1.6-0.1-3.3-0.1-5l4.3,0.3c0.5,0.1,0.8,0.2,0.8,0.4c0,0.4-0.2,0.9-0.7,1.3l0,3h11.9v9.7
				h6.5v3.6h-18.1c0.9,1.6,2,2.9,3.2,4c1.4,1.2,3.3,2.2,5.5,3.1c1.8,0.8,5,1.4,9.4,2l-3.1,3.9c-3.9-0.8-7.1-1.8-9.5-3
				c-2.2-1.1-4.1-2.5-5.7-4.1c-0.7-0.8-1.4-1.6-2-2.5c-1,1.9-2.4,3.5-4,4.7c-3,2.2-7.9,3.9-14.6,4.9l-2.7-3.8
				c5.6-0.6,9.7-1.5,12.3-2.7c2.4-1.1,4.1-2.6,5.1-4.5c0.4-0.6,0.7-1.2,0.9-2h-18.2v-3.6h7.2V30.8z M205.3,20.4h9.9V16l3.8,0.4
				c0.7,0,1.1,0.2,1.1,0.5c0,0.2-0.2,0.6-0.7,1.1v2.4h11V16l3.8,0.4c0.7,0,1.1,0.2,1.1,0.5c0,0.2-0.2,0.6-0.7,1.1v2.4h9.4V24h-9.4
				v3.8h-4.1V24h-11v3.8h-4.1V24h-9.9V20.4z M215.2,40.5h7.5c0.1-0.6,0.1-1.3,0.1-2c0-1.4,0-2.7,0-4.1h-7.5V40.5z M226.8,34.4l0,4.1
				c0,0.7,0,1.4,0,2h8v-6.1H226.8z"/>
			<path class="st0" d="M259.2,22.5h16.6v3.7h-16.6V22.5z M260.1,42h14.4v14.8h-3.8v-2h-6.8v2.3h-3.8V42z M260.9,16.7h12.6v3.5
				h-12.6V16.7z M260.9,29h12.6v3.4h-12.6V29z M260.9,35.5h12.6v3.4h-12.6V35.5z M263.9,51.3h6.8v-5.9h-6.8V51.3z M277.8,16.6h21.1
				V20h-9.1l-1.2,4.2h8.7v9.6h3.4v3.6H276v-3.6h5.6l1.7-5.9h-5v-3.6h6l1.2-4.2h-7.8V16.6z M278.5,40.5h19.8V57h-4.1v-2h-11.5v2h-4.1
				V40.5z M282.7,51.3h11.5v-7.2h-11.5V51.3z M285.8,33.7h7.3v-5.9h-5.6L285.8,33.7z"/>
		</g>
	</g>
	<g>
		<g>
			<path class="st1" d="M31.7,41c0,0-2.3-3.1-2.4-21.3l30.8,0C59.9,37.9,57.6,41,57.6,41c-4.4,9.2-13,13.1-13,13.1S36,50.2,31.7,41z
				"/>
			<g>
				<path class="st2" d="M31,25.4c0-1.2-0.1-2.5-0.1-3.9H31v-0.9h-0.5H30v0.4c0,7.6,0.5,12.3,1,15.3V25.4z"/>
				<g>
					<rect x="31.3" y="20.7" class="st2" width="1.2" height="0.9"/>
					<path class="st2" d="M32.6,39.3c-0.4-1.3-0.9-3.6-1.2-7.8v6.6c0.4,2,0.8,2.7,1,2.9c0.1,0.2,0.2,0.4,0.3,0.6V39.3z"/>
				</g>
				<g>
					<rect x="32.9" y="20.7" class="st2" width="1.1" height="0.9"/>
					<path class="st2" d="M34,42.3c-0.3-0.5-0.6-1.1-0.9-1.6l0,0l0,0c0,0-0.1-0.1-0.2-0.3v2c0.3,0.6,0.7,1.2,1.1,1.8V42.3z"/>
				</g>
				<g>
					<rect x="38.6" y="20.7" class="st2" width="1.1" height="0.9"/>
					<rect x="37.2" y="20.7" class="st2" width="1.1" height="0.9"/>
					<rect x="35.7" y="20.7" class="st2" width="1.1" height="0.9"/>
					<path class="st2" d="M36.8,47.6v-1.3c-0.4-0.4-0.7-0.9-1.1-1.3v1.4C36.1,46.8,36.5,47.2,36.8,47.6z"/>
					<path class="st2" d="M39.6,49c-0.3-0.3-0.7-0.6-1.1-0.9v1.2c0.4,0.3,0.7,0.6,1.1,0.9V49z"/>
					<path class="st2" d="M38.3,47.7c-0.4-0.4-0.7-0.7-1.1-1.1v1.3c0.4,0.4,0.7,0.7,1.1,1.1V47.7z"/>
					<path class="st2" d="M35.4,44.4c-0.4-0.5-0.7-1.1-1.1-1.6v1.6h0c0.4,0.5,0.7,1,1.1,1.5V44.4z"/>
					<rect x="34.3" y="20.7" class="st2" width="1.1" height="0.9"/>
				</g>
				<g>
					<rect x="42.8" y="20.7" class="st2" width="1.2" height="0.9"/>
					<rect x="47.1" y="20.7" class="st2" width="1.1" height="0.8"/>
					<rect x="45.6" y="20.7" class="st2" width="1.2" height="0.9"/>
					<rect x="44.3" y="20.7" class="st2" width="1" height="0.9"/>
					<path class="st2" d="M42.5,52.2v-1c-0.3-0.2-0.7-0.5-1-0.7v1.1C41.8,51.7,42.1,52,42.5,52.2z"/>
					<path class="st2" d="M43.9,52c-0.3-0.2-0.7-0.4-1.2-0.7v1c0.5,0.3,0.9,0.5,1.2,0.6V52z"/>
					<rect x="41.4" y="20.7" class="st2" width="1" height="0.9"/>
					<path class="st2" d="M49.7,49.1c-0.4,0.3-0.8,0.6-1.2,0.9v1.1c0.4-0.3,0.8-0.6,1.2-0.9V49.1z"/>
					<path class="st2" d="M45.3,52.2c-0.2,0.1-0.4,0.2-0.5,0.3c-0.1-0.1-0.3-0.1-0.5-0.2v1c0.1,0.1,0.2,0.1,0.3,0.1l0.2,0.1l0.2-0.1
						c0,0,0.2-0.1,0.3-0.2V52.2z"/>
					<path class="st2" d="M41.1,50.2c-0.4-0.3-0.7-0.6-1.1-0.9v1.1c0.4,0.3,0.8,0.6,1.1,0.8V50.2z"/>
					<rect x="40" y="20.7" class="st2" width="1.1" height="0.9"/>
					<path class="st2" d="M48.2,50.3c-0.4,0.3-0.7,0.5-1.1,0.7v1.1c0.3-0.2,0.7-0.4,1.1-0.7V50.3z"/>
					<rect x="48.5" y="20.7" class="st2" width="1.2" height="0.8"/>
					<path class="st2" d="M46.8,52.3v-1c-0.4,0.3-0.8,0.5-1.2,0.7v1C45.9,52.8,46.3,52.6,46.8,52.3z"/>
				</g>
				<g>
					<rect x="54.2" y="20.7" class="st2" width="1.1" height="0.8"/>
					<path class="st2" d="M55.3,44.2v-1.6c-0.3,0.6-0.7,1.1-1.1,1.6v1.5C54.6,45.3,54.9,44.8,55.3,44.2L55.3,44.2z"/>
					<path class="st2" d="M53.9,44.7c-0.4,0.5-0.8,1-1.2,1.4v1.3c0.4-0.4,0.8-0.9,1.2-1.3V44.7z"/>
					<rect x="52.7" y="20.7" class="st2" width="1.2" height="0.8"/>
					<rect x="51.3" y="20.7" class="st2" width="1.1" height="0.8"/>
					<rect x="55.6" y="20.7" class="st2" width="1.1" height="0.8"/>
					<path class="st2" d="M59,20.7h-0.6v0.8h0.1c0,1.8,0,3.4-0.1,4.9v10.2c0.5-3,1-7.8,1-15.5v-0.4H59z"/>
					<path class="st2" d="M52.4,47.8v-1.3c-0.4,0.4-0.7,0.8-1.1,1.1v1.2C51.7,48.5,52,48.2,52.4,47.8L52.4,47.8z"/>
					<path class="st2" d="M51,48c-0.3,0.3-0.7,0.6-1,0.9V50c0.3-0.3,0.7-0.5,1-0.9V48z"/>
					<path class="st2" d="M58.1,31.9c-0.3,3.5-0.7,5.6-1.1,6.9v2.5c0.1-0.1,0.1-0.2,0.1-0.3c0.1-0.2,0.5-0.9,0.9-2.7V31.9z"/>
					<rect x="50" y="20.7" class="st2" width="1" height="0.8"/>
					<path class="st2" d="M56.7,39.9c-0.2,0.5-0.3,0.7-0.3,0.7l0,0c0,0,0,0,0,0c-0.2,0.5-0.5,1-0.7,1.4v1.7c0.4-0.6,0.7-1.2,1.1-1.8
						V39.9z"/>
					<rect x="57" y="20.7" class="st2" width="1.1" height="0.8"/>
				</g>
			</g>
			<path class="st4" d="M31.7,41c0,0-2.3-3-2.4-21.2l30.8,0C60,38,57.6,41,57.6,41c-4.4,9.3-13,13.1-13,13.1S36,50.3,31.7,41z"/>
			<g>
				<g>
					<polygon class="st3" points="23.9,21.9 23.9,21.9 23.9,21.9 23.9,21.9 					"/>
					<rect x="23.9" y="21.9" class="st3" width="0" height="0"/>
					<path class="st3" d="M27.6,43.7L27.6,43.7L27.6,43.7C27.5,43.7,27.5,43.7,27.6,43.7L27.6,43.7L27.6,43.7z"/>
					<polygon class="st3" points="27.6,43.7 27.6,43.7 27.6,43.7 27.6,43.7 					"/>
					<polygon class="st3" points="27.8,51.8 27.8,51.8 27.8,51.7 27.8,51.7 					"/>
					<polygon class="st3" points="30.2,48.5 30.2,48.5 30.2,48.5 					"/>
					<path class="st3" d="M30.2,48.5L30.2,48.5L30.2,48.5C30.2,48.5,30.2,48.6,30.2,48.5L30.2,48.5L30.2,48.5z"/>
					<path class="st3" d="M35.7,55.9C35.7,56,35.6,56,35.7,55.9c-0.1,0-1.1,0.1-1.6,0.3c0,0-0.1,0-0.1,0c0,0-0.1,0-0.1-0.1
						c0,0,0-0.1,0-0.1c0,0,0-0.1,0.1-0.1c0.3-0.2,0.8-0.3,1.2-0.3c-0.6-0.3-1.2-0.5-1.8-0.8c-0.3,0-1.1-0.1-1.7,0.5c0,0-0.1,0-0.1,0
						c0,0-0.1,0-0.1,0c0,0,0-0.1,0-0.1c0,0,0-0.1,0-0.1c0.3-0.3,0.8-0.5,1.3-0.5c-0.6-0.3-1.2-0.6-1.7-0.8c-0.3-0.1-1.2-0.1-1.7,0.6
						c0,0-0.1,0.1-0.1,0.1c0,0-0.1,0-0.1,0c0,0-0.1-0.1-0.1-0.1c0,0,0-0.1,0-0.1l0,0l0,0c0.4-0.5,0.9-0.7,1.3-0.7
						c-0.4-0.2-0.8-0.4-1.2-0.6c-0.1,0-1.2-0.2-1.6,0.3c0,0.1-0.1,0.1-0.2,0c-0.1,0-0.1-0.1,0-0.2l0,0l0,0h0
						c0.3-0.3,0.8-0.4,1.2-0.4c-0.4-0.2-0.7-0.4-1-0.6c-0.3-0.1-0.9-0.2-1.4-0.1l0,0l0,0v0c0,0,0,0,0,0c0,0-0.1,0-0.1-0.1
						c0,0,0-0.1,0-0.1c0,0,0.1-0.1,0.1-0.1c0.3-0.1,0.6-0.1,0.9,0c-1-0.6-1.8-1.2-2.5-1.8c-0.1,0-0.1-0.1,0-0.2c0,0,0.1,0,0.1,0
						c0,0,0.1,0,0.1,0c0.6,0.5,1.4,1.1,2.3,1.6c-0.2-0.3-0.3-0.7-0.3-1.1c0,0,0-0.1,0-0.1c0,0,0.1,0,0.1,0c0.1,0,0.2,0,0.2,0.1
						c0.1,1,0.6,1.5,0.7,1.5h0c0,0,0,0,0,0l0,0l0,0l0,0v0v0c0,0,0,0,0,0c0.1,0,0.1,0,0.1,0c0,0,0.1,0,0.1,0.1l0.3,0.2
						c-0.3-0.4-0.4-0.9-0.4-1.4c0,0,0-0.1,0-0.1c0,0,0.1,0,0.1,0c0,0,0.1,0,0.1,0c0,0,0,0.1,0,0.1c0,1.1,0.7,1.6,0.7,1.6l0,0
						c0,0,0,0,0,0l0,0c0,0,0,0.1,0,0.1l0.4,0.2h0c0,0,0,0,0.1,0l0,0c0.2,0.1,0.5,0.3,0.8,0.4c-0.3-0.5-0.7-1.2-0.8-2l0,0
						c0,0,0,0,0,0c0-0.1,0.1-0.1,0.1-0.2c0,0,0.1,0,0.1,0c0,0,0.1,0.1,0.1,0.1c0.2,1.3,1.1,2.3,1.1,2.4c0,0,0,0,0,0l0.2,0.1
						c0,0,0,0,0,0c0.1,0,0.1,0,0.1,0c0,0,0.1,0,0.1,0.1c0.5,0.2,1,0.5,1.5,0.7c-0.5-0.6-1.3-1.7-1.5-2.7l0,0c0,0,0,0,0,0
						c0-0.1,0-0.1,0.1-0.2c0.1,0,0.2,0,0.2,0.1c0.2,1.3,1.7,2.9,1.7,2.9l0,0l0,0c0,0,0,0,0,0l0,0c0,0,0,0,0,0c0.1,0,0.1,0,0.1,0
						c0,0,0.1,0,0.1,0.1l0,0c0.5,0.2,1.1,0.5,1.7,0.7c-0.4-0.5-1-1.4-1.4-3c0,0,0-0.1,0-0.1c0,0,0.1-0.1,0.1-0.1c0,0,0.1,0,0.1,0
						c0,0,0.1,0,0.1,0.1c0.6,2.3,1.5,3.1,1.7,3.2l0,0c0,0,0,0,0,0l0,0c0,0,0,0,0,0h0l0,0l0,0c0,0,0,0,0,0.1c0.7,0.3,1.3,0.5,1.5,0.6
						c-0.1-0.7-0.5-2-1.8-3.4c-0.2-2.1-1.4-5-5.5-7.9c-0.5-1.4-1.3-3.1-2.9-5c0,0-0.1,0.3-0.4,0.7c-0.1-1.4-0.4-3.1-1.3-5.1
						c0,0-0.5,0.5-1.1,1.3c0.7-1.6,1.1-4,0.2-7.5c0,0-0.3,0.2-0.8,0.7c0.7-1.4,1.2-3.3,1.1-6c0,0-0.2,0.1-0.5,0.3
						c0.5-1,1-2.2,1.2-3.8c1.2-1.3,2.2-3.4,2.5-6.9c0,0-2.5,0.9-4.5,3c0-0.2-0.1-0.3-0.1-0.5c0,0-2.7,2.1-3.6,5.3
						c-0.1-0.2-0.3-0.4-0.4-0.6c0,0-2.3,3.7-1,7.7c-0.4-0.5-0.8-0.9-1.3-1.4c0,0-1.9,4.2,0.2,8.1c-0.2-0.1-0.3-0.2-0.5-0.3
						c0,0-0.3,3.5,1.8,6.5c-0.2-0.1-0.4-0.1-0.7-0.2c0,0,1.1,5.6,6.3,7.8c-0.2,0-0.5,0-0.7,0c0,0,4.3,8.6,13.7,7.6c0,0,0,0,0-0.1
						c0,0,0,0,0,0C37.4,56.7,36.7,56.4,35.7,55.9z M32.7,49.2c0-0.1,0.1-0.1,0.2-0.1c0.1,0,0.1,0.1,0.1,0.2
						c-0.2,0.4-0.3,0.8-0.3,1.4l0,0l0,0.1l0,0l0,0l0,0l-0.2-0.1l0,0c0,0,0,0,0-0.1C32.4,50,32.5,49.5,32.7,49.2z M29.6,45.8
						C29.6,45.8,29.6,45.7,29.6,45.8c0-0.1,0.1-0.1,0.1-0.1c0,0,0.1,0,0.1,0c0,0,0.1,0,0.1,0.1c0,0,0,0.1,0,0.1
						c-0.5,0.9-0.2,1.6-0.2,1.6l0,0c0,0,0,0,0,0c0,0,0,0,0,0c0,0.1,0.1,0.1,0.1,0.1c0,0,0,0.1,0,0.1l0.2,0.3c0-0.5,0.1-0.9,0.4-1.4
						c0,0,0.1-0.1,0.1-0.1c0,0,0.1,0,0.1,0c0,0,0.1,0,0.1,0.1c0,0,0,0.1,0,0.1c-0.6,0.9-0.3,1.7-0.3,1.7l0,0c0,0,0,0,0,0
						c0,0,0,0.1,0,0.1l0.2,0.4v0l0,0l0,0l0,0c0,0,0,0,0,0l0,0c0.1,0.2,0.3,0.5,0.5,0.8c0-0.6,0.1-1.3,0.4-2.1c0-0.1,0.1-0.1,0.2-0.1
						c0.1,0,0.1,0.1,0.1,0.2c-0.4,0.9-0.4,1.8-0.4,2.3l0,0l0,0l0,0l0,0c0,0-0.1,0-0.1,0c0,0,0,0-0.1,0l0,0l0,0c0,0-0.1,0-0.1,0
						l-0.1,0l0,0l0,0l0,0l0,0c0,0,0,0,0,0l0,0l0,0c0,0,0,0,0,0c-0.2-0.3-0.4-0.6-0.5-0.9c-0.1-0.1-0.9-0.8-1.5-0.5
						c-0.1,0-0.2,0-0.2-0.1c0-0.1,0-0.2,0.1-0.2c0.4-0.1,0.8-0.1,1.3,0.2c-0.2-0.3-0.4-0.7-0.5-0.9c-0.2-0.2-0.6-0.6-1.2-0.8
						c0,0-0.1,0-0.1-0.1c0,0,0-0.1,0-0.1c0-0.1,0.1-0.1,0.2-0.1l0,0l0,0v0c0.2,0.1,0.5,0.2,0.7,0.4c-0.5-1-0.9-1.9-1.1-2.7
						c0-0.1,0-0.2,0.1-0.2c0.1,0,0.2,0,0.2,0.1c0.3,0.8,0.6,1.6,1,2.5C29.3,46.5,29.4,46.1,29.6,45.8z M28.4,43.3L28.4,43.3
						L28.4,43.3C28.4,43.3,28.5,43.3,28.4,43.3c0.1,0.1,0.1,0.1,0.1,0.2c-0.1,0.1-0.2,0.2-0.3,0.2c0,0-0.1,0-0.1-0.1l0,0l0,0
						c0,0,0,0,0,0l0,0l0,0v0l0,0c0,0,0,0,0,0l0,0l0,0h0l0,0c0,0,0,0,0,0l0,0l0,0c0,0,0,0,0,0v0l0,0l0,0h0v0
						C28.1,43.5,28.2,43.4,28.4,43.3L28.4,43.3L28.4,43.3L28.4,43.3L28.4,43.3z M26.3,45.8L26.3,45.8c0-0.1,0.1-0.1,0.1-0.1
						c0.4,0,0.8,0.1,1.1,0.4c0-0.3-0.1-0.7-0.1-1c-0.1-0.1-0.4-0.8-0.9-0.8c0,0-0.1,0-0.1,0c0,0,0-0.1,0-0.1c0-0.1,0.1-0.1,0.1-0.1
						c0.3,0,0.6,0.2,0.9,0.5c0-0.3-0.1-0.5-0.1-0.8c-0.1-0.2-0.3-0.6-0.6-0.9c0,0-0.1-0.1-0.1-0.1c0,0,0-0.1,0-0.1
						c0.1-0.1,0.1-0.1,0.2,0c0.1,0.1,0.3,0.3,0.4,0.5c0-0.8,0-1.6,0-2.3c0,0,0-0.1,0.1-0.1c0,0,0.1,0,0.1,0c0,0,0.1,0,0.1,0
						c0,0,0,0.1,0,0.1c0,0.6-0.1,1.3,0,2.1c0.1-0.2,0.3-0.5,0.5-0.7c0,0,0,0,0,0c0.1,0,0.2,0,0.2,0c0,0,0,0.1,0,0.1
						c0,0,0,0.1-0.1,0.1c-0.7,0.5-0.7,1.1-0.7,1.2v0c0,0,0,0,0,0c0,0,0,0,0,0c0,0,0,0.1,0,0.1c0,0,0,0.1,0,0.1l0,0l0,0.2
						c0,0,0-0.1,0-0.1l0,0l0,0l0.1,0l0,0l0,0c0,0.1,0,0.3,0,0.4v0v0l0,0v0c0,0.1,0,0.2,0,0.2l0,0c0,0,0,0,0,0c0,0,0,0,0,0l0,0.4
						c0,0,0,0,0,0l0,0l0,0c0,0,0,0,0,0c0,0.3,0.1,0.5,0.1,0.8l0,0l0,0c0.1,0.7,0.2,1.4,0.3,2c0,0,0,0,0,0.1c0,0,0.1,0.3,0.1,0.3
						c0,0,0,0.1,0.1,0.1c0,0,0,0.1,0,0.1c0,0,0.2,0.8,0.2,0.8l0,0l0,0l0,0l0,0c0,0-0.1,0-0.1,0l0,0l-0.1,0l0,0l0,0l0,0l0,0
						c-0.1-0.3-0.1-0.6-0.2-0.9c-0.1-0.2-0.3-0.5-0.7-0.6l0,0l0,0l0,0v0c0,0,0,0,0-0.1c0,0,0-0.1,0-0.1l0,0l0,0l0,0l0,0l0,0
						c0.2,0.1,0.4,0.2,0.5,0.3c-0.1-0.5-0.2-0.9-0.2-1.4c-0.1-0.2-0.5-0.7-1.2-0.7h0h0l0,0l0,0c0,0,0,0,0,0l0,0l0,0
						C26.3,45.9,26.3,45.9,26.3,45.8L26.3,45.8L26.3,45.8C26.3,45.8,26.3,45.8,26.3,45.8L26.3,45.8L26.3,45.8L26.3,45.8z M26.2,43.5
						C26.2,43.6,26.2,43.6,26.2,43.5L26.2,43.5L26.2,43.5c-0.5,0.4-0.8,0.6-1.2,0.9l0,0l0,0l0,0l0,0c0,0-0.1-0.1-0.1-0.1l0,0l0,0
						l0,0l0,0l0,0c0.3-0.3,0.7-0.6,1.1-0.9c0,0,0.1,0,0.1,0c0,0,0.1,0,0.1,0.1C26.2,43.5,26.2,43.5,26.2,43.5z M24.8,38.5
						c0.2-0.8,0.4-1.5,0.6-2.1c0,0,0-0.1,0.1-0.1c0,0,0.1,0,0.1,0c0,0,0.1,0,0.1,0.1c0,0,0,0.1,0,0.1c-0.2,0.6-0.4,1.2-0.6,1.9
						c0.2-0.2,0.4-0.4,0.7-0.5c0,0,0.1,0,0.1,0c0,0,0.1,0,0.1,0.1c0,0,0,0.1,0,0.1c0,0,0,0.1-0.1,0.1c-0.8,0.3-0.9,0.9-0.9,0.9l0,0
						c0,0,0,0,0,0c0,0,0,0,0,0c0,0,0,0.1,0,0.1c0,0,0,0.1-0.1,0.1l0,0.1c0.2-0.2,0.5-0.4,0.9-0.6c0,0,0.1,0,0.1,0c0,0,0.1,0,0.1,0.1
						c0,0,0,0.1,0,0.1c0,0,0,0.1-0.1,0.1c-0.8,0.3-1,0.9-1,0.9l0,0c0,0,0,0,0,0c0,0,0,0-0.1,0l-0.1,0.4v0c0,0,0,0,0,0l0,0
						c0,0.2-0.1,0.4-0.1,0.6c0.4-0.4,0.8-0.8,1.2-1v0l0,0c0,0,0.1,0,0.1,0c0,0,0.1,0,0.1,0.1c0,0,0,0.1,0,0.1c0,0,0,0,0,0.1l0,0v0
						c0,0,0,0,0,0c-1,0.5-1.5,1.4-1.5,1.4l0,0c0,0,0,0,0,0l0,0l0,0.1c0,0,0,0,0,0c0,0,0,0.1,0,0.1c0,0,0,0.1,0,0.1
						c0,0.3-0.1,0.7-0.1,1.1c0.3-0.5,0.9-1.3,1.6-1.6c0,0,0.1,0,0.1,0c0,0,0.1,0,0.1,0.1c0,0,0,0.1,0,0.1c0,0,0,0.1-0.1,0.1
						c-0.9,0.5-1.8,2-1.8,2c0,0,0,0,0,0l0,0c0,0.1,0,0.1,0,0.1c0,0,0,0.1,0,0.1l0,0l0,0l0,0l0,0l0,0c-0.1,0-0.1-0.1-0.2-0.1l0,0l0,0
						v0l0,0c-0.1-0.2-0.2-0.7-0.8-1c0,0-0.1,0-0.1-0.1c0,0,0-0.1,0-0.1c0-0.1,0.1-0.1,0.2-0.1l0,0l0,0v0c0.3,0.1,0.5,0.3,0.7,0.6
						c0-0.5,0.1-0.9,0.1-1.3c-0.1-0.2-0.3-0.8-0.9-0.9h0l0,0v0c0,0,0,0,0,0c0,0,0-0.1,0-0.1c0,0,0-0.1,0.1-0.1c0,0,0.1,0,0.1,0
						c0.4,0.1,0.7,0.3,0.9,0.7c0-0.3,0.1-0.6,0.1-0.9c0-0.1-0.2-0.9-0.6-1c0,0-0.1,0-0.1-0.1c0,0,0-0.1,0-0.1c0,0,0-0.1,0.1-0.1
						c0,0,0.1,0,0.1,0c0.3,0.1,0.5,0.3,0.7,0.6c0.1-0.3,0.1-0.5,0.1-0.7c0-0.2-0.1-0.6-0.4-1c0,0,0-0.1,0-0.1c0,0,0-0.1,0.1-0.1
						c0,0,0.1,0,0.1,0c0,0,0.1,0,0.1,0.1C24.6,38.1,24.7,38.3,24.8,38.5z M22.7,42.8L22.7,42.8L22.7,42.8L22.7,42.8L22.7,42.8
						L22.7,42.8l-0.1,0.1v-0.1l0,0l-0.1,0l0,0v0c0-0.5,0.1-1.2,0.3-1.9c0-0.1,0.1-0.1,0.1-0.1c0,0,0.1,0,0.1,0.1h0l0,0l0,0l0,0l0,0
						v0v0c0,0,0,0,0,0h0v0h0c0,0,0,0,0,0c0,0,0,0,0,0c0,0,0,0,0,0l0,0l0,0l0,0C22.7,41.7,22.6,42.3,22.7,42.8L22.7,42.8z M22,38.6
						L22,38.6L22,38.6L22,38.6L22,38.6c-0.1,0-0.1,0-0.1-0.1c0,0,0,0-0.1-0.1l0,0l0,0l0,0l0,0c0.5-0.4,1.1-0.9,2-1.3l0,0l0,0
						c0.1,0,0.2,0,0.2,0.1c0,0.1,0,0.2-0.1,0.2C22.9,37.8,22.4,38.3,22,38.6z M24.5,30.1C24.5,30.1,24.5,30.1,24.5,30.1
						c0.1-0.1,0.2-0.1,0.2-0.1c0,0,0.1,0,0.1,0.1c0,0,0,0.1,0,0.1c-0.3,0.5-0.6,1.1-0.9,1.8c0.2-0.2,0.5-0.3,0.8-0.4
						c0,0,0.1,0,0.1,0c0,0,0.1,0,0.1,0.1c0,0.1,0,0.1-0.1,0.2c-0.8,0.2-1.1,0.7-1.1,0.7c0,0,0,0,0,0c0,0,0,0.1,0,0.1
						c0,0,0,0.1-0.1,0.1l-0.1,0.1c0.3-0.2,0.6-0.4,0.9-0.4l0,0c0,0,0,0,0,0c0.1,0,0.2,0,0.2,0.1c0,0,0,0.1,0,0.1
						c0,0-0.1,0.1-0.1,0.1c-0.8,0.2-1.2,0.7-1.2,0.7l0,0c0,0,0,0,0,0c0,0,0,0,0,0L23.1,34l0,0c0,0,0,0,0,0v0
						c-0.1,0.2-0.1,0.4-0.2,0.6c0.4-0.4,0.9-0.7,1.4-0.8c0,0,0.1,0,0.1,0c0,0,0.1,0,0.1,0.1c0,0.1,0,0.2-0.1,0.2
						c-1,0.3-1.7,1.2-1.7,1.2l0,0h0l0,0.1c0,0,0,0,0,0c0,0,0,0.1,0,0.1c0,0,0,0.1-0.1,0.1c-0.1,0.3-0.2,0.6-0.3,1
						c0.4-0.4,1.1-1.1,1.8-1.4c0,0,0.1,0,0.1,0c0,0,0.1,0,0.1,0.1c0,0,0,0.1,0,0.1c0,0,0,0.1-0.1,0.1c-1,0.3-2.1,1.7-2.1,1.7
						c0,0,0,0,0,0c0,0,0,0,0,0c0,0.1,0,0.1,0,0.1c0,0,0,0.1-0.1,0.1c-0.1,0.3-0.1,0.6-0.2,1l0,0.1l0,0.1l0,0l0,0
						c0,0-0.1-0.1-0.1-0.1c0,0,0,0-0.1-0.1l0,0l0,0l0,0l0,0c0.1-0.4,0.2-0.7,0.3-1c0-0.2-0.1-0.8-0.6-1.1c0,0-0.1,0-0.1-0.1
						c0,0,0-0.1,0-0.1c0,0,0.1-0.1,0.1-0.1c0,0,0.1,0,0.1,0c0.3,0.2,0.5,0.4,0.6,0.7c0.1-0.5,0.2-0.9,0.4-1.3c0-0.2-0.1-0.8-0.7-1
						c0,0-0.1,0-0.1-0.1c0,0,0-0.1,0-0.1c0,0,0-0.1,0.1-0.1c0,0,0.1,0,0.1,0c0.4,0.1,0.7,0.4,0.8,0.8c0.1-0.3,0.2-0.6,0.3-0.9
						c0-0.1,0-0.9-0.5-1c0,0-0.1,0-0.1-0.1c0,0,0-0.1,0-0.1c0,0,0-0.1,0.1-0.1c0,0,0.1,0,0.1,0c0.3,0.1,0.5,0.3,0.5,0.7
						c0.1-0.2,0.2-0.5,0.3-0.7c0-0.2,0-0.6-0.2-1l0,0l0,0l0,0c0,0,0,0,0-0.1c0,0,0-0.1,0.1-0.1c0,0,0.1,0,0.1,0c0,0,0,0,0,0l0,0l0,0
						c0,0,0,0,0,0l0,0v0l0,0l0,0c0,0,0,0,0,0l0,0l0,0l0,0l0,0c0,0,0,0,0,0c0.1,0.1,0.1,0.3,0.2,0.5C23.8,31.3,24.1,30.7,24.5,30.1z
						 M20.9,32L20.9,32L20.9,32L20.9,32C20.9,32,20.9,32,20.9,32L20.9,32C20.9,32,20.9,32,20.9,32L20.9,32L20.9,32L20.9,32
						C20.9,32,20.9,32,20.9,32L20.9,32L20.9,32C20.9,32,20.9,32,20.9,32c-0.1-0.1-0.1-0.1-0.1-0.1c0.4-0.2,1-0.5,1.9-0.7
						c0,0,0.1,0,0.1,0.1c0,0,0,0.1-0.1,0.1C21.9,31.5,21.3,31.8,20.9,32C20.9,32,20.9,32,20.9,32z M24.8,24.6c0,0,0.1,0,0.1,0
						c0,0,0.1,0.1,0.1,0.1c0,0,0,0.1,0,0.1c-0.4,0.4-0.8,0.9-1.2,1.5c0.2-0.1,0.5-0.2,0.7-0.2c0,0,0,0,0,0c0,0,0.1,0,0.1,0
						c0,0,0,0.1,0,0.1c0,0,0,0.1,0,0.1c0,0-0.1,0-0.1,0c-0.8,0.1-1.2,0.5-1.2,0.5l0,0c0,0,0,0,0,0c0,0,0,0,0,0c0,0,0,0.1,0,0.1
						c0,0,0,0-0.1,0.1v0l0,0.1c0,0,0,0,0,0c0.3-0.1,0.6-0.2,1-0.2c0,0,0.1,0,0.1,0c0,0,0,0.1,0,0.1c0,0,0,0.1,0,0.1c0,0-0.1,0-0.1,0
						c-0.8,0-1.2,0.4-1.2,0.5l0,0c0,0,0,0,0,0c0,0,0,0-0.1,0L22.6,28l0,0l0,0l0,0v0c0,0,0,0,0,0c-0.1,0.2-0.2,0.3-0.3,0.5
						c0.5-0.3,1-0.5,1.5-0.5c0.1,0,0.2,0,0.2,0.1c0,0.1-0.1,0.2-0.1,0.2C22.8,28.4,22,29,22,29c0,0,0,0,0,0l0,0.1c0,0,0,0.1,0,0.1
						c0,0,0,0.1,0,0.1c0,0,0,0-0.1,0.1l0,0c-0.2,0.3-0.3,0.6-0.5,0.9c0.5-0.4,1.3-0.8,2-0.9c0,0,0.1,0,0.1,0c0,0,0.1,0.1,0.1,0.1
						c0,0,0,0.1,0,0.1c0,0-0.1,0-0.1,0.1c-1,0.1-2.3,1.2-2.3,1.2c0,0,0,0,0,0c0,0,0,0,0,0c0,0,0,0.1,0,0.1c0,0,0,0.1-0.1,0.1
						l-0.3,0.6v0h0h-0.1h0l0,0l0,0l0,0c0,0,0-0.1-0.1-0.1l0,0h0c0,0,0,0,0,0c0,0,0.3-0.6,0.3-0.6c0-0.2,0-0.7-0.4-1.1
						c-0.1-0.1-0.1-0.1,0-0.2c0,0,0.1,0,0.1,0c0,0,0,0,0.1,0l0,0h0c0,0,0,0,0,0c0.2,0.2,0.4,0.5,0.4,0.8c0.2-0.4,0.4-0.7,0.6-1.1
						c0-0.2,0.1-0.8-0.5-1.1c0,0-0.1-0.1-0.1-0.1c0,0,0-0.1,0-0.1c0,0,0.1-0.1,0.1-0.1c0,0,0,0,0.1,0v0h0c0,0,0,0,0,0
						c0.3,0.2,0.5,0.5,0.6,0.9c0.1-0.2,0.3-0.5,0.4-0.7c0-0.1,0.2-0.8-0.2-1c0,0-0.1,0-0.1-0.1c0,0,0-0.1,0-0.1c0-0.1,0.1-0.1,0.2,0
						c0.2,0.1,0.3,0.4,0.4,0.8c0.1-0.2,0.3-0.4,0.4-0.6c0.1-0.2,0.1-0.6,0-1c0,0,0-0.1,0-0.1c0,0,0.1-0.1,0.1-0.1c0,0,0.1,0,0.1,0
						c0,0,0.1,0,0.1,0.1c0,0.1,0.1,0.3,0,0.5c0.5-0.6,0.9-1.2,1.3-1.6C24.7,24.6,24.8,24.6,24.8,24.6z M22,24.7L22,24.7L22,24.7
						c0.7-0.3,1.2-0.5,1.7-0.5c0,0,0.1,0,0.1,0c0,0,0,0.1,0,0.1c0,0,0,0.1,0,0.1c0,0,0,0,0,0c0,0,0,0-0.1,0c-0.4,0-0.9,0.2-1.5,0.4
						l0,0l0,0l0,0l0,0c0,0,0-0.1,0-0.1C22,24.8,22,24.8,22,24.7L22,24.7L22,24.7z M26.2,18.9c-0.4,0-1,0.2-1.7,0.6l-0.1,0l0,0l0-0.1
						l0,0c0,0,0-0.1,0-0.1c0,0,0-0.1,0-0.1l0,0v0l0,0l0,0c0.7-0.4,1.2-0.5,1.7-0.6c0.1,0,0.2,0.1,0.2,0.1
						C26.3,18.8,26.2,18.9,26.2,18.9z M24,17C24,17,24,17,24,17C24,17,24,17,24,17L24,17C24,17,24,17,24,17c0-0.1,0.1-0.1,0.1-0.1
						c0,0,0.1,0,0.1,0l0,0l0,0l0,0c0.3,0.2,0.4,0.5,0.5,0.9c0.2-0.2,0.3-0.5,0.5-0.7c0-0.1,0.2-0.8-0.1-1c0,0,0-0.1-0.1-0.1
						c0,0,0-0.1,0-0.1c0.1-0.1,0.1-0.1,0.2,0c0.2,0.2,0.3,0.4,0.3,0.8c0.2-0.2,0.3-0.4,0.4-0.5c0.1-0.2,0.2-0.6,0.1-1v0l0,0v0
						c0,0,0-0.1,0-0.1c0,0,0.1,0,0.1-0.1c0,0,0.1,0,0.1,0c0,0,0.1,0,0.1,0.1c0,0.1,0,0.3,0,0.5c0.5-0.6,1-1.1,1.4-1.5
						c0,0,0.1,0,0.1,0c0,0,0.1,0,0.1,0c0,0,0,0.1,0,0.1c0,0,0,0.1,0,0.1c-0.4,0.4-0.9,0.8-1.3,1.4c0.3-0.1,0.5-0.1,0.8-0.1
						c0,0,0.1,0,0.1,0c0,0,0,0.1,0,0.1c0,0,0,0.1,0,0.1c0,0-0.1,0-0.1,0c-0.8,0-1.2,0.4-1.2,0.4l0,0c0,0,0,0,0,0c0,0,0,0,0,0
						c0,0,0,0.1,0,0.1c0,0,0,0-0.1,0v0l0,0.1c0,0,0,0,0,0c0.3-0.1,0.6-0.2,1-0.2c0,0,0.1,0,0.1,0c0,0,0,0.1,0,0.1c0,0,0,0.1-0.1,0.1
						c0,0-0.1,0-0.1,0c-0.8,0-1.3,0.3-1.3,0.3l0,0c0,0,0,0,0,0c0,0,0,0-0.1,0l-0.2,0.3l0,0l0,0l0,0l0,0c0,0,0,0,0,0
						c-0.1,0.2-0.2,0.3-0.3,0.4c0.5-0.2,1-0.4,1.5-0.4l0,0c0,0,0,0,0,0c0.1,0,0.2,0.1,0.2,0.1c0,0.1-0.1,0.1-0.1,0.1
						c-1,0-1.9,0.6-1.9,0.6c0,0,0,0,0,0l-0.1,0.1c0,0,0,0.1,0,0.1c0,0,0,0.1,0,0.1c0,0,0,0-0.1,0.1h0c0,0-0.1,0.1-0.1,0.1
						c0,0-0.1,0.1-0.1,0.1l0,0l0,0l-0.1,0l0,0l0,0l0-0.1c0,0,0-0.1,0-0.1l0,0v0l0,0l0,0l0-0.1c0,0,0.1-0.1,0.1-0.1
						c0.1-0.2,0.1-0.8-0.4-1.1l0,0l0,0l0,0v0L24,17L24,17l0,0.1l0,0L24,17L24,17L24,17C24,17,24,17,24,17L24,17z M23.9,20.7
						c0,0,0.1,0,0.1,0c0,0,0.1,0.1,0.1,0.1c0,0.1,0,0.3,0,0.5c0.5-0.6,1-1.1,1.5-1.5c0,0,0.1,0,0.1,0c0,0,0.1,0,0.1,0
						c0,0,0,0.1,0,0.1c0,0,0,0.1,0,0.1c-0.4,0.4-0.9,0.8-1.4,1.4c0.3-0.1,0.5-0.1,0.8-0.1c0,0,0.1,0,0.1,0c0,0,0,0.1,0,0.1
						c0,0,0,0.1-0.1,0.1c0,0-0.1,0-0.1,0c-0.8,0-1.2,0.4-1.2,0.4l0,0c0,0,0,0,0,0c0,0,0,0,0,0c0,0,0,0.1,0,0.1c0,0,0,0-0.1,0l0,0
						l0,0.1c0,0,0,0,0,0c0.3-0.1,0.6-0.2,1-0.1c0,0,0.1,0,0.1,0c0,0,0,0.1,0,0.1c0,0,0,0.1-0.1,0.1c0,0-0.1,0-0.1,0
						c-0.8-0.1-1.3,0.3-1.3,0.3l0,0c0,0,0,0,0,0c0,0,0,0-0.1,0l-0.2,0.3v0l0,0l0,0h0c-0.1,0.2-0.2,0.3-0.3,0.4
						c0.5-0.2,1-0.3,1.5-0.3l0,0c0,0,0,0,0,0c0.1,0,0.1,0.1,0.1,0.1c0,0,0,0.1,0,0.1c0,0-0.1,0-0.1,0c-1,0-1.9,0.6-1.9,0.6
						c0,0,0,0,0,0L22.3,24c0,0,0,0.1,0,0.1c0,0,0,0.1,0,0.1c0,0,0,0-0.1,0.1l0,0l-0.1,0.1L22,24.4c0,0,0,0,0,0l0,0h0
						c0,0,0,0-0.1-0.1c0,0,0-0.1-0.1-0.1l0-0.1l0,0h0v0l0,0l0,0l0,0l0,0l0,0c0,0,0.2-0.2,0.2-0.3c0.1-0.2,0.2-0.8-0.3-1.1
						c0,0-0.1-0.1-0.1-0.1c0,0,0-0.1,0-0.1c0,0,0.1,0,0.1-0.1c0,0,0.1,0,0.1,0v0c0,0,0,0,0,0l0,0l0,0c0.3,0.2,0.5,0.5,0.5,0.9
						c0.2-0.2,0.3-0.4,0.5-0.7c0-0.1,0.3-0.8-0.1-1.1c0,0,0-0.1-0.1-0.1c0,0,0-0.1,0-0.1c0,0,0.1,0,0.1,0c0,0,0.1,0,0.1,0
						c0.2,0.2,0.3,0.4,0.3,0.8c0.2-0.2,0.3-0.4,0.4-0.5c0.1-0.2,0.2-0.6,0.2-1C23.8,20.8,23.8,20.8,23.9,20.7
						C23.9,20.7,23.9,20.7,23.9,20.7z M20.9,20.6C20.9,20.6,20.9,20.6,20.9,20.6L20.9,20.6l0.1,0c0,0,0,0,0,0
						c0.4,0.1,0.6,0.4,0.8,0.7c0.1-0.3,0.2-0.6,0.2-0.8c0-0.1,0-0.8-0.5-1c0,0-0.1,0-0.1-0.1c0,0,0-0.1,0-0.1c0,0,0-0.1,0.1-0.1
						c0,0,0.1,0,0.1,0c0.2,0.1,0.4,0.3,0.5,0.7c0.1-0.2,0.1-0.4,0.2-0.6c0-0.2,0-0.6-0.2-0.9c0,0,0-0.1,0-0.1c0,0,0-0.1,0.1-0.1
						c0,0,0.1,0,0.1,0c0,0,0.1,0,0.1,0.1c0.1,0.1,0.1,0.3,0.2,0.5c0.3-0.7,0.6-1.3,0.8-1.9c0,0,0.1-0.1,0.1-0.1c0,0,0.1,0,0.1,0
						c0,0,0.1,0,0.1,0.1c0,0,0,0.1,0,0.1c-0.3,0.5-0.5,1.1-0.8,1.7c0.2-0.2,0.4-0.3,0.7-0.4c0,0,0.1,0,0.1,0c0,0,0.1,0,0.1,0.1
						c0,0,0,0.1,0,0.1c0,0,0,0-0.1,0.1v0l0,0c-0.8,0.2-1,0.7-1,0.7l0,0c0,0,0,0,0,0c0,0,0,0,0,0c0,0,0,0.1,0,0.1c0,0,0,0.1-0.1,0.1
						c0,0,0,0.1,0,0.1c0.2-0.2,0.5-0.3,0.9-0.4l0,0c0,0,0,0,0,0c0.1,0,0.2,0,0.2,0.1c0,0,0,0.1,0,0.1c0,0,0,0.1-0.1,0.1
						c-0.8,0.2-1.1,0.7-1.1,0.7l0,0c0,0,0,0,0,0c0,0,0,0,0,0l0,0.1c0,0.1,0,0.1-0.1,0.2v0l0,0v0c0,0,0,0,0,0
						c-0.1,0.2-0.1,0.4-0.2,0.5c0.4-0.4,0.8-0.7,1.3-0.8c0,0,0.1,0,0.1,0c0,0,0.1,0,0.1,0.1c0,0,0,0.1,0,0.1c0,0,0,0-0.1,0.1v0l0,0
						c-1,0.3-1.6,1.2-1.6,1.2l0,0l0,0.1c0,0,0,0.1,0,0.1c0,0,0,0.1,0,0.1c0,0,0,0.1,0,0.1h0l0,0.1l0,0.1l0,0l0,0l0,0c0,0,0,0,0,0
						l0,0l0,0l0,0c0,0-0.1,0.1-0.1,0.1c0,0-0.1,0.1-0.1,0.1l0,0l0,0l-0.1,0l0,0l0,0l0.2-0.6c0-0.2-0.1-0.8-0.7-0.9
						c0,0-0.1,0-0.1-0.1C20.8,20.7,20.8,20.7,20.9,20.6C20.8,20.6,20.8,20.6,20.9,20.6z M18.8,26.3L18.8,26.3L18.8,26.3L18.8,26.3
						c-0.1,0-0.1,0-0.1,0c0,0,0-0.1,0-0.1c0,0,0-0.1,0-0.1c0,0,0.1,0,0.1,0c0.4,0,0.7,0.1,1,0.4c0-0.3-0.1-0.5-0.1-0.8
						c0-0.1-0.4-0.8-0.8-0.7c-0.1,0-0.1-0.1-0.1-0.1c0,0,0-0.1,0-0.1c0,0,0.1,0,0.1,0c0.3,0,0.5,0.1,0.8,0.4c0-0.2,0-0.5,0-0.7
						c-0.1-0.2-0.2-0.6-0.6-0.8c0,0,0-0.1-0.1-0.1c0,0,0-0.1,0-0.1c0,0,0.1,0,0.1,0c0,0,0.1,0,0.1,0c0.1,0.1,0.2,0.2,0.4,0.4
						c0-0.8,0-1.4,0.1-2c0,0,0-0.1,0.1-0.1c0,0,0.1,0,0.1,0c0,0,0.1,0,0.1,0c0,0,0,0.1,0,0.1c-0.1,0.5-0.1,1.2-0.1,1.9
						c0.1-0.2,0.3-0.4,0.5-0.6c0,0,0.1,0,0.1,0c0,0,0.1,0,0.1,0.1c0,0,0,0.1,0,0.1c0,0,0,0.1-0.1,0.1c-0.6,0.5-0.6,1-0.6,1v0
						c0,0,0,0,0,0c0,0,0,0,0,0c0,0,0,0.1,0,0.1c0,0,0,0.1,0,0.1l0,0.1c0,0,0,0,0,0c0.1-0.3,0.4-0.5,0.6-0.7c0,0,0.1,0,0.1,0
						c0,0,0.1,0,0.1,0.1c0,0,0,0.1,0,0.1c0,0,0,0.1-0.1,0.1c-0.6,0.5-0.7,1-0.7,1c0,0,0,0.1-0.1,0.1l0,0.3l0,0v0l0,0v0c0,0,0,0,0,0
						c0,0.2,0,0.4,0.1,0.5c0.2-0.5,0.5-0.9,0.9-1.2c0,0,0.1,0,0.1,0c0,0,0.1,0,0.1,0.1c0,0,0,0.1,0,0.1c0,0,0,0.1-0.1,0.1
						c-0.8,0.6-1,1.6-1,1.6c0,0,0,0,0,0l0,0.1c0,0,0,0.1,0,0.1c0,0,0,0.1,0,0.1c0,0,0,0.1,0,0.1h0c0,0.3,0.1,0.7,0.2,1
						c0.2-0.6,0.5-1.4,1.1-1.8c0.1-0.1,0.2-0.1,0.2,0c0,0,0,0.1,0,0.1c0,0,0,0.1,0,0.1c-0.7,0.7-1.1,2.2-1.1,2.2l0,0h0c0,0,0,0,0,0
						v0l0,0l0,0l0,0l0,0c0,0,0,0,0,0.1l0,0.1c0,0.1-0.1,0.1-0.1,0.2l0,0l0,0l-0.1,0h0l0,0l0-0.1c0,0,0-0.1,0-0.1
						c-0.1-0.2-0.4-0.6-1-0.7l0,0c0,0-0.1,0-0.1-0.1c0,0,0-0.1,0-0.1c0,0,0-0.1,0.1-0.1c0,0,0.1,0,0.1,0c0.3,0.1,0.6,0.2,0.8,0.4
						c-0.1-0.4-0.1-0.8-0.2-1.2C19.8,26.7,19.4,26.3,18.8,26.3z M17.7,34.2c0,0,0-0.1,0-0.1c0-0.1,0.1-0.1,0.2-0.1
						c0.3,0,0.6,0.1,0.9,0.3c-0.1-0.4-0.2-0.8-0.3-1.2c-0.1-0.2-0.5-0.6-1.1-0.5c0,0-0.1,0-0.1,0c0,0-0.1-0.1-0.1-0.1
						c0,0,0-0.1,0-0.1c0,0,0.1-0.1,0.1-0.1c0.4-0.1,0.7,0,1.1,0.3c-0.1-0.3-0.1-0.5-0.2-0.8c-0.1-0.1-0.5-0.7-0.9-0.7
						c0,0-0.1,0-0.1,0c0,0-0.1-0.1-0.1-0.1c0,0,0-0.1,0-0.1c0,0,0.1-0.1,0.1-0.1c0.3,0,0.5,0.1,0.8,0.3c0-0.2-0.1-0.4-0.1-0.6
						c-0.1-0.2-0.3-0.5-0.7-0.7c-0.1,0-0.1-0.1,0-0.2c0,0,0.1-0.1,0.1-0.1c0,0,0.1,0,0.1,0c0.1,0.1,0.3,0.2,0.4,0.3
						c-0.1-0.8-0.2-1.4-0.2-2c0,0,0-0.1,0-0.1c0,0,0.1,0,0.1,0c0,0,0.1,0,0.1,0c0,0,0,0.1,0,0.1c0,0.5,0.1,1.2,0.2,1.9
						c0.1-0.2,0.2-0.4,0.4-0.6c0,0,0.1,0,0.1,0c0,0,0.1,0,0.1,0c0,0,0,0.1,0,0.1c0,0,0,0.1,0,0.1c-0.6,0.5-0.5,1.1-0.5,1.1l0,0
						c0,0,0,0,0,0c0,0,0,0,0,0c0,0,0,0.1,0,0.1c0,0,0,0.1,0,0.1l0,0c0,0,0,0,0,0.1c0.1-0.3,0.3-0.5,0.6-0.8c0,0,0.1,0,0.1,0
						c0,0,0.1,0,0.1,0c0,0,0.1,0.1,0,0.2l0,0v0c0,0,0,0,0,0c-0.6,0.5-0.6,1.1-0.6,1.1v0c0,0,0,0,0,0c0,0,0,0,0,0l0.1,0.3l0,0v0
						c0,0,0,0,0,0l0,0c0,0,0,0,0,0c0,0.2,0.1,0.4,0.1,0.5c0.2-0.5,0.4-0.9,0.7-1.3l0,0c0,0,0,0,0,0c0,0,0.1,0,0.1,0c0,0,0.1,0,0.1,0
						c0,0,0.1,0.1,0.1,0.1c0,0,0,0.1,0,0.1c-0.7,0.7-0.8,1.7-0.8,1.7c0,0,0,0,0,0l0,0.1c0,0,0,0.1,0,0.1c0,0,0,0,0,0.1
						c0,0,0,0.1,0,0.1l0,0c0.1,0.3,0.2,0.6,0.3,1c0.1-0.6,0.4-1.4,0.8-1.9c0-0.1,0.1-0.1,0.2,0c0,0,0,0.1,0,0.1c0,0,0,0.1,0,0.1
						c-0.6,0.7-0.8,2.3-0.8,2.3l0,0h0c0,0,0,0,0,0c0,0,0,0,0,0c0,0,0.1,0.1,0.1,0.1c0,0,0,0.1,0,0.1c0.1,0.4,0.2,0.7,0.4,1.1
						c0.1-0.4,0.3-1.1,1-2l0,0c0,0,0,0,0,0c0-0.1,0.1-0.1,0.2,0c0,0,0.1,0.1,0.1,0.1c0,0,0,0,0,0h0l0,0c0,0,0,0,0,0.1
						c-1.1,1.5-1,2.4-1,2.4l0,0l0,0l-0.1,0l0,0l0,0l0,0c-0.1-0.1-0.3-0.2-0.4-0.3l0,0l0,0h0v0c0,0,0,0-0.1-0.1
						c-0.1-0.1-0.2-0.1-0.4-0.2l0,0c0,0,0,0-0.1,0l0,0l0,0c0,0,0,0,0,0l0,0l-0.2-0.1l0,0l0,0v0c0,0,0,0,0-0.1c0,0,0,0,0.1,0h0l0,0
						l0,0c0.2,0,0.5,0.1,0.7,0.2c-0.1-0.4-0.2-0.7-0.3-1c-0.1-0.2-0.5-0.6-1.1-0.6C17.8,34.3,17.7,34.3,17.7,34.2z M18.8,40.6
						c0,0-0.1,0-0.1,0c0,0-0.1,0-0.1-0.1c0,0,0-0.1,0-0.1c0,0,0-0.1,0.1-0.1c0.4-0.2,0.8-0.2,1.2,0c-0.2-0.2-0.3-0.5-0.5-0.8
						c-0.1-0.1-0.7-0.6-1.1-0.4l0,0h0h0h0l0,0c0,0-0.1,0-0.1,0c0,0-0.1,0-0.1-0.1c0-0.1,0-0.2,0.1-0.2l0,0l0,0v0
						c0.2-0.1,0.5,0,0.8,0.1c-0.1-0.2-0.3-0.4-0.4-0.6c-0.2-0.2-0.5-0.4-0.9-0.5c0,0-0.1,0-0.1-0.1c0,0,0-0.1,0-0.1
						c0,0,0-0.1,0.1-0.1c0,0,0.1,0,0.1,0c0.2,0,0.3,0.1,0.5,0.2c-0.4-0.7-0.7-1.4-0.9-2l0,0c0,0,0,0,0,0c0,0,0-0.1,0-0.1
						c0,0,0-0.1,0.1-0.1c0,0,0.1,0,0.1,0c0,0,0.1,0,0.1,0.1c0.2,0.5,0.5,1.1,0.8,1.8c0-0.3,0.1-0.5,0.2-0.8c0,0,0-0.1,0.1-0.1
						c0,0,0.1,0,0.1,0c0,0,0.1,0,0.1,0.1c0,0,0,0.1,0,0.1c-0.4,0.7-0.1,1.2-0.1,1.2l0,0l0,0v0c0,0,0,0,0,0c0,0,0,0,0,0l0,0l0,0l0,0
						l0,0l0,0c0,0,0,0,0,0.1l0,0.1c0,0,0,0,0,0.1c0-0.3,0.1-0.6,0.3-1l0,0c0,0,0,0,0,0l0,0c0,0,0,0,0,0l0,0l0,0h0l0,0v0
						c0,0,0.1-0.1,0.1-0.1c0,0,0.1,0,0.1,0c0,0,0.1,0,0.1,0.1c0,0,0,0,0,0h0l0,0c0,0,0,0,0,0.1c-0.4,0.7-0.2,1.3-0.2,1.3l0,0
						c0,0,0,0,0,0c0,0,0,0,0,0.1l0.2,0.3l0,0v0l0,0c0,0,0,0,0,0c0.1,0.2,0.2,0.4,0.3,0.5c0-0.5,0.1-1,0.3-1.5c0,0,0,0,0-0.1
						c0,0,0-0.1,0.1-0.1c0,0,0.1,0,0.1,0c0.1,0,0.1,0.1,0.1,0.2c-0.4,0.9-0.2,1.9-0.2,2l0,0l0.1,0.1c0,0,0,0.1,0,0.1
						c0,0,0.1,0,0.1,0c0,0,0,0.1,0,0.1h0c0.2,0.3,0.4,0.6,0.6,0.9C21,41,21,40,21.2,39.4c0,0,0-0.1,0.1-0.1c0,0,0.1,0,0.1,0
						c0,0,0.1,0,0.1,0.1c0,0,0,0.1,0,0.1c-0.4,0.9,0,2.6,0,2.6c0,0,0,0,0,0.1c0,0,0,0,0,0c0,0,0.1,0.1,0.1,0.1c0,0,0,0.1,0,0.1
						c0,0,0.1,0.1,0.1,0.1l0.1,0.1l0,0l0,0l0,0l0,0l0,0c-0.1,0-0.1-0.1-0.2-0.1c0,0-0.1,0-0.1,0l0,0l0,0l0,0v0l0,0c0,0,0,0,0,0
						c-0.2-0.1-0.6-0.4-1.1-0.3h0h0l0,0c0,0,0,0,0,0l-0.3-0.1c0,0,0,0,0,0h0l0,0c0,0,0,0,0-0.1c0,0,0,0,0,0c0,0,0,0,0.1,0
						c0.3-0.1,0.7-0.1,1,0.1c-0.3-0.4-0.5-0.7-0.8-1.1C20,40.6,19.4,40.3,18.8,40.6z M24.6,48.9c0-0.1,0-0.2,0.1-0.2
						c0.2-0.1,0.5-0.1,1,0c-0.4-0.3-0.8-0.6-1.2-0.9c-0.2-0.1-0.8-0.3-1.4,0c0,0-0.1,0-0.1,0c0,0-0.1,0-0.1-0.1c0,0,0-0.1,0-0.1
						c0,0,0-0.1,0.1-0.1c0.3-0.2,0.7-0.2,1.1-0.2c-0.4-0.3-0.8-0.6-1.1-0.9c-0.3-0.1-0.9-0.3-1.4,0.2c0,0-0.1,0-0.1,0
						c0,0-0.1,0-0.1,0c0,0,0-0.1,0-0.1c0,0,0-0.1,0-0.1c0.4-0.3,0.8-0.4,1.2-0.3c-0.2-0.2-0.5-0.4-0.7-0.7c-0.1-0.1-0.9-0.4-1.3-0.1
						c0,0-0.1,0-0.1,0c0,0-0.1,0-0.1,0c-0.1-0.1,0-0.1,0-0.2l0,0l0,0h0c0.2-0.2,0.6-0.2,1-0.1c-0.2-0.2-0.4-0.4-0.6-0.6
						c-0.2-0.1-0.6-0.3-1.1-0.3c0,0-0.1,0-0.1,0c0,0,0-0.1,0-0.1c0,0,0-0.1,0-0.1c0,0,0.1,0,0.1,0c0.2,0,0.4,0,0.6,0.1
						c-0.6-0.7-1.1-1.2-1.5-1.8c0,0,0-0.1,0-0.1c0,0,0-0.1,0.1-0.1c0.1,0,0.2,0,0.2,0c0.4,0.5,0.8,1.1,1.4,1.7
						c-0.1-0.3-0.1-0.6,0-0.9l0,0l0,0c0,0,0,0,0,0l0,0c0,0,0-0.1,0.1-0.1c0,0,0.1,0,0.1,0c0,0,0.1,0,0.1,0.1c0,0,0,0.1,0,0.1
						c-0.2,0.8,0.2,1.3,0.2,1.3l0,0c0,0,0,0,0,0c0,0,0,0,0,0c0,0,0.1,0.1,0.1,0.1c0,0,0,0.1,0.1,0.1l0,0c0,0,0,0,0.1,0.1
						c-0.1-0.3-0.1-0.7,0-1.1c0,0,0-0.1,0.1-0.1c0,0,0.1,0,0.1,0c0.1,0,0.1,0.1,0.1,0.2c-0.2,0.8,0.2,1.4,0.2,1.4c0,0,0,0.1,0,0.1
						l0.3,0.3l0,0h0v0c0.1,0.1,0.3,0.3,0.5,0.5c-0.2-0.5-0.2-1.1-0.2-1.6c0,0,0,0,0,0c0-0.1,0.1-0.1,0.2-0.1c0.1,0,0.1,0.1,0.1,0.2
						c-0.2,1.1,0.4,2,0.4,2l0,0l0.1,0.1c0,0,0.1,0.1,0.1,0.1c0,0,0.1,0,0.1,0c0,0,0,0,0,0.1l0,0c0.3,0.3,0.6,0.5,0.9,0.8
						c-0.3-0.6-0.6-1.5-0.5-2.3l0,0c0,0,0,0,0,0v0l0,0c0-0.1,0.1-0.1,0.2-0.1c0,0,0.1,0,0.1,0.1c0,0,0,0.1,0,0.1
						c-0.1,1,0.7,2.6,0.7,2.6l0,0l0,0c0,0,0.1,0,0.1,0l0,0v0c0,0,0,0,0,0.1c0.3,0.3,0.7,0.5,1.1,0.8c-0.2-0.5-0.4-1.2-0.4-2.5
						c0,0,0-0.1,0-0.1c0,0,0.1,0,0.1,0c0,0,0.1,0,0.1,0.1h0l0,0c0,0,0,0,0,0.1c-0.1,2.1,0.6,2.8,0.6,2.8l0,0c0,0,0,0,0,0
						c0,0,0,0,0,0.1l0.5,0.4l0,0l0,0l0,0.1l0,0l0,0l-0.1,0l-0.1,0c0,0,0,0-0.1,0c0,0,0,0-0.1,0h0l0,0h0l0,0l0,0l0,0l0,0l0,0
						c0,0-0.4-0.3-0.5-0.4c0,0,0,0,0,0c0,0-0.9-0.2-1.3,0C24.8,49,24.7,48.9,24.6,48.9z"/>
					<polygon class="st3" points="22,45.2 22,45.2 22,45.2 					"/>
					<path class="st3" d="M28.9,52.3L28.9,52.3C28.9,52.3,28.9,52.3,28.9,52.3L28.9,52.3L28.9,52.3L28.9,52.3L28.9,52.3z"/>
					<polygon class="st3" points="28.4,43.3 28.4,43.3 28.4,43.3 					"/>
					<path class="st3" d="M37.7,56.6c0-0.1,0-0.2-0.1-0.2h0c0,0,0,0-0.1,0c0,0.1,0,0.2,0,0.3C37.6,56.7,37.7,56.7,37.7,56.6z"/>
				</g>
			</g>
			<g>
				<g>
					<rect x="65.5" y="22" class="st3" width="0" height="0"/>
					<path class="st3" d="M61.9,43.7L61.9,43.7L61.9,43.7C61.9,43.7,61.9,43.8,61.9,43.7L61.9,43.7L61.9,43.7z"/>
					<polygon class="st3" points="61.9,43.7 61.9,43.7 61.9,43.7 61.9,43.7 					"/>
					<polygon class="st3" points="61.6,51.8 61.6,51.8 61.6,51.8 61.6,51.8 					"/>
					<polygon class="st3" points="59.2,48.6 59.2,48.6 59.2,48.6 					"/>
					<path class="st3" d="M59.2,48.6L59.2,48.6L59.2,48.6C59.2,48.6,59.2,48.6,59.2,48.6L59.2,48.6L59.2,48.6z"/>
					<path class="st3" d="M51.9,56.7C51.9,56.7,51.9,56.7,51.9,56.7C51.9,56.8,51.9,56.8,51.9,56.7c9.3,1.1,13.6-7.5,13.6-7.5
						c-0.3,0-0.5,0-0.7,0c5.1-2.2,6.3-7.8,6.3-7.8c-0.2,0.1-0.4,0.1-0.7,0.2c2-3,1.8-6.5,1.8-6.5c-0.2,0.1-0.3,0.2-0.5,0.3
						c2.1-3.9,0.2-8.1,0.2-8.1c-0.5,0.5-0.9,1-1.3,1.4c1.3-3.9-1-7.7-1-7.7c-0.2,0.2-0.3,0.4-0.4,0.6c-0.9-3.3-3.6-5.3-3.6-5.3
						c-0.1,0.2-0.1,0.4-0.1,0.5c-2-2.1-4.5-3-4.5-3c0.3,3.5,1.3,5.6,2.5,6.9c0.3,1.6,0.7,2.8,1.2,3.8c-0.3-0.2-0.5-0.3-0.5-0.3
						c-0.1,2.7,0.4,4.6,1.1,6c-0.5-0.4-0.8-0.7-0.8-0.7c-0.8,3.5-0.5,5.9,0.2,7.5c-0.6-0.8-1.1-1.3-1.1-1.3c-0.9,2-1.2,3.7-1.3,5.1
						c-0.2-0.5-0.4-0.7-0.4-0.7c-1.5,1.9-2.4,3.5-2.9,4.9c-4.1,2.9-5.3,5.8-5.5,7.9c-1.3,1.4-1.6,2.8-1.8,3.4
						c0.2-0.1,0.7-0.3,1.5-0.6c0,0,0,0,0,0l0,0l0,0l0,0l0,0h0c0,0,0,0,0,0v0c0.2-0.1,1.1-0.9,1.7-3.2c0,0,0-0.1,0.1-0.1
						c0,0,0.1,0,0.1,0c0,0,0.1,0,0.1,0.1c0,0,0,0.1,0,0.1c-0.4,1.6-0.9,2.5-1.4,3c0.6-0.3,1.2-0.5,1.7-0.7l0,0c0,0,0-0.1,0.1-0.1
						c0,0,0.1,0,0.2,0c0,0,0,0,0,0l0,0c0,0,0,0,0,0l0,0l0,0c0,0,1.5-1.6,1.7-2.9c0-0.1,0.1-0.1,0.2-0.1c0.1,0,0.1,0.1,0.1,0.2
						c0,0,0,0,0,0l0,0c-0.2,1-0.9,2.1-1.5,2.7c0.5-0.3,1-0.5,1.5-0.7c0,0,0-0.1,0.1-0.1c0,0,0,0,0.1,0c0,0,0,0,0,0l0.2-0.1
						c0,0,0,0,0,0c0,0,1-1,1.1-2.3c0,0,0-0.1,0.1-0.1c0,0,0.1,0,0.1,0c0.1,0,0.1,0.1,0.1,0.2c0,0,0,0,0,0l0,0
						c-0.1,0.8-0.5,1.5-0.8,2c0.3-0.2,0.6-0.3,0.8-0.4l0,0c0,0,0,0,0.1,0l0,0l0.4-0.2c0,0,0-0.1,0-0.1l0,0l0,0l0,0
						c0,0,0.6-0.5,0.7-1.6c0,0,0-0.1,0-0.1c0,0,0.1,0,0.1,0c0,0,0.1,0,0.1,0c0,0,0,0.1,0,0.1c0,0.5-0.2,1-0.4,1.4l0.3-0.2
						c0,0,0-0.1,0.1-0.1c0,0,0.1,0,0.1,0c0,0,0,0,0,0v0v0l0,0l0,0l0,0c0,0,0,0,0,0l0,0c0.1,0,0.6-0.5,0.7-1.5c0-0.1,0.1-0.1,0.2-0.1
						c0,0,0.1,0,0.1,0c0,0,0,0.1,0,0.1c0,0.4-0.1,0.8-0.3,1.1c0.9-0.6,1.7-1.1,2.3-1.6c0,0,0.1,0,0.1,0c0,0,0.1,0,0.1,0
						c0.1,0.1,0.1,0.1,0,0.2c-0.7,0.6-1.5,1.2-2.5,1.8c0.3,0,0.6,0,0.9,0c0,0,0.1,0,0.1,0.1c0,0,0,0.1,0,0.1c0,0,0,0.1-0.1,0.1
						c0,0,0,0,0,0v0l0,0l0,0c-0.6-0.1-1.1,0-1.4,0.1c-0.3,0.2-0.6,0.4-1,0.6c0.4,0,0.9,0.1,1.2,0.4h0l0,0l0,0c0,0.1,0,0.1,0,0.2
						c-0.1,0-0.2,0-0.2,0c-0.4-0.5-1.4-0.3-1.6-0.3c-0.4,0.2-0.8,0.4-1.2,0.6c0.4,0,1,0.2,1.3,0.7l0,0l0,0c0,0,0,0.1,0,0.1
						c0,0,0,0.1-0.1,0.1c0,0-0.1,0-0.1,0c0,0-0.1,0-0.1-0.1c-0.5-0.7-1.3-0.7-1.7-0.6c-0.5,0.3-1.1,0.6-1.7,0.8c0.5,0,1,0.2,1.3,0.5
						c0,0,0,0.1,0,0.1c0,0,0,0.1,0,0.1c0,0-0.1,0-0.1,0c0,0-0.1,0-0.1,0c-0.6-0.5-1.4-0.5-1.7-0.5c-0.6,0.3-1.2,0.5-1.8,0.8
						c0.4,0,0.9,0.1,1.2,0.3c0,0,0.1,0.1,0.1,0.1c0,0,0,0.1,0,0.1c0,0-0.1,0.1-0.1,0.1c0,0-0.1,0-0.1,0c-0.5-0.3-1.5-0.3-1.5-0.3
						c0,0,0,0,0,0C52.7,56.4,52,56.7,51.9,56.7z M57.1,50.7C57.1,50.7,57.1,50.7,57.1,50.7L57.1,50.7l-0.2,0.1l0,0l0,0l0,0l0,0v0
						c0-0.6-0.1-1.1-0.3-1.4c0-0.1,0-0.2,0.1-0.2c0.1,0,0.2,0,0.2,0.1C56.9,49.6,57,50.1,57.1,50.7z M60.1,46.9
						c0.4-0.9,0.8-1.8,1-2.5c0-0.1,0.1-0.1,0.2-0.1c0.1,0,0.1,0.1,0.1,0.2c-0.3,0.8-0.7,1.7-1.1,2.7c0.3-0.2,0.5-0.3,0.7-0.4v0l0,0
						l0,0c0.1,0,0.2,0,0.2,0.1c0,0,0,0.1,0,0.1c0,0,0,0.1-0.1,0.1c-0.5,0.2-1,0.5-1.2,0.7c-0.1,0.3-0.3,0.6-0.5,1
						c0.5-0.3,0.9-0.4,1.3-0.2c0.1,0,0.1,0.1,0.1,0.2c0,0.1-0.1,0.1-0.2,0.1c-0.6-0.2-1.4,0.5-1.5,0.6c-0.1,0.3-0.3,0.5-0.5,0.9
						c0,0,0,0,0,0l0,0l0,0c0,0,0,0,0,0l0,0v0l0,0l0,0l-0.1,0c0,0-0.1,0-0.1,0l0,0l0,0c0,0,0,0-0.1,0c0,0-0.1,0-0.1,0l-0.1,0l0,0l0,0
						l0-0.1c0-0.5,0-1.4-0.4-2.3c0-0.1,0-0.1,0.1-0.2c0.1,0,0.2,0,0.2,0.1c0.4,0.8,0.5,1.6,0.4,2.1c0.2-0.3,0.3-0.6,0.5-0.8l0,0
						c0,0,0,0,0,0l0,0l0,0l0,0l0,0l0.2-0.4c0,0,0-0.1,0-0.1c0,0,0,0,0,0l0,0c0,0,0.2-0.7-0.3-1.7c0,0,0-0.1,0-0.1c0,0,0-0.1,0.1-0.1
						c0,0,0.1,0,0.1,0c0,0,0.1,0,0.1,0.1c0.3,0.5,0.4,0.9,0.4,1.4l0.2-0.3c0,0,0-0.1,0-0.1c0,0,0-0.1,0.1-0.1c0,0,0,0,0,0
						c0,0,0,0,0,0l0,0c0,0,0.3-0.7-0.2-1.6c0,0,0-0.1,0-0.1c0,0,0-0.1,0.1-0.1c0,0,0.1,0,0.1,0c0,0,0.1,0,0.1,0.1c0,0,0,0,0,0.1
						C60,46.2,60.1,46.5,60.1,46.9z M61.1,43.3L61.1,43.3L61.1,43.3L61.1,43.3c0.1,0.1,0.2,0.2,0.3,0.3h0h0l0,0l0,0v0c0,0,0,0,0,0
						l0,0l0,0c0,0,0,0,0,0l0,0l0,0l0,0l0,0c0,0,0,0,0,0l0,0l0,0l0,0l0,0c0,0,0,0,0,0l0,0l0,0c0,0-0.1,0-0.1,0.1
						c-0.1-0.1-0.2-0.2-0.3-0.2c0,0,0-0.1,0-0.1C61,43.4,61,43.4,61.1,43.3L61.1,43.3L61.1,43.3L61.1,43.3z M63.2,45.8L63.2,45.8
						L63.2,45.8C63.1,45.9,63.1,45.9,63.2,45.8L63.2,45.8L63.2,45.8c0,0.1-0.1,0.1-0.1,0.1l0,0l0,0c0,0,0,0,0,0l0,0l0,0l0,0h0
						c-0.7,0-1.1,0.5-1.2,0.7c-0.1,0.4-0.1,0.9-0.2,1.4c0.1-0.1,0.3-0.2,0.5-0.3l0,0l0,0l0,0l0,0l0,0c0,0,0,0.1,0,0.1c0,0,0,0,0,0.1
						l0,0l0,0l0,0l0,0c-0.4,0.2-0.6,0.5-0.7,0.6c0,0.3-0.1,0.6-0.2,0.9v0l0,0l0,0l0,0c0,0-0.1,0-0.1,0h0c0,0-0.1,0-0.1,0l0,0l0,0
						l0,0l0,0c0,0,0.2-0.8,0.2-0.8c0,0,0-0.1,0-0.1c0,0,0,0,0-0.1c0,0,0.1-0.3,0.1-0.3c0-0.1,0-0.1,0-0.1c0.2-0.7,0.3-1.3,0.3-2v0
						l0,0c0-0.3,0.1-0.5,0.1-0.8c0,0,0,0,0,0l0,0l0,0c0,0,0,0,0,0l0-0.4c0,0,0,0,0-0.1c0,0,0,0,0,0v0c0,0,0-0.1,0-0.2v0h0v0v0
						c0-0.1,0-0.3,0-0.4v0l0,0l0.1,0l0,0l0,0c0,0,0,0.1,0,0.1l0-0.2l0,0c0,0,0-0.1,0-0.1c0,0,0,0,0-0.1c0,0,0,0,0,0c0,0,0,0,0,0v0
						c0,0,0-0.6-0.7-1.2c0,0-0.1-0.1-0.1-0.1c0,0,0-0.1,0-0.1c0.1-0.1,0.1-0.1,0.2,0c0,0,0,0,0,0c0.2,0.2,0.4,0.4,0.5,0.6
						c0-0.8,0-1.5,0-2.1c0,0,0-0.1,0-0.1c0,0,0.1,0,0.1,0c0,0,0.1,0,0.1,0c0,0,0,0.1,0.1,0.1c0.1,0.7,0.1,1.4,0,2.3
						c0.1-0.2,0.3-0.3,0.4-0.5c0.1,0,0.2,0,0.2,0c0,0,0,0.1,0,0.1c0,0,0,0.1-0.1,0.1c-0.3,0.3-0.6,0.7-0.6,0.9c0,0.2,0,0.5-0.1,0.8
						c0.3-0.3,0.6-0.5,0.9-0.5c0.1,0,0.1,0.1,0.1,0.1c0,0,0,0.1-0.1,0.1c0,0-0.1,0-0.1,0c-0.5,0-0.9,0.7-0.9,0.8
						c0,0.3-0.1,0.6-0.1,1c0.3-0.3,0.7-0.5,1.1-0.4C63.1,45.7,63.1,45.8,63.2,45.8L63.2,45.8L63.2,45.8z M63.2,43.5
						c0,0,0.1-0.1,0.1-0.1c0,0,0.1,0,0.1,0c0.4,0.3,0.8,0.6,1.1,0.9l0,0l0,0l0,0l0,0l0,0c0,0-0.1,0.1-0.1,0.1l0,0l0,0l0,0l0,0
						c-0.3-0.3-0.7-0.6-1.1-0.8l0,0v0c0,0,0,0-0.1-0.1C63.2,43.6,63.2,43.5,63.2,43.5z M64.9,38C64.9,38,64.9,38,64.9,38
						c0.1-0.1,0.2,0,0.2,0c0,0,0.1,0.1,0.1,0.1c0,0,0,0.1,0,0.1c-0.3,0.3-0.3,0.7-0.3,1c0,0.2,0.1,0.4,0.1,0.7
						c0.2-0.3,0.4-0.6,0.7-0.6c0,0,0.1,0,0.1,0c0,0,0.1,0,0.1,0.1c0,0,0,0.1,0,0.1c0,0-0.1,0.1-0.1,0.1c-0.5,0.1-0.6,0.9-0.6,1
						c0,0.3,0.1,0.6,0.1,0.9c0.2-0.3,0.5-0.6,0.9-0.7c0,0,0.1,0,0.1,0c0,0,0.1,0.1,0.1,0.1c0,0,0,0.1,0,0.1c0,0,0,0,0,0v0l0,0l0,0
						c-0.7,0.1-0.9,0.7-0.9,0.9c0.1,0.4,0.1,0.8,0.2,1.3c0.2-0.3,0.4-0.5,0.7-0.6v0l0,0l0,0c0.1,0,0.2,0,0.2,0.1c0,0,0,0.1,0,0.1
						c0,0,0,0.1-0.1,0.1c-0.6,0.2-0.7,0.7-0.8,1v0v0l0,0l0,0c-0.1,0-0.1,0.1-0.2,0.1l0,0l0,0l0,0l0,0l0,0c0,0,0,0,0-0.1
						c0,0,0-0.1,0-0.1v0c0,0,0,0,0,0c0,0-0.8-1.5-1.8-2c0,0-0.1-0.1-0.1-0.1c0,0,0-0.1,0-0.1c0,0,0-0.1,0.1-0.1c0,0,0.1,0,0.1,0
						c0.7,0.4,1.3,1.1,1.6,1.6c0-0.4-0.1-0.7-0.1-1.1c0,0,0-0.1,0-0.1c0,0,0,0,0-0.1c0,0,0,0,0,0l0-0.1l0,0l0,0l0,0
						c0,0-0.5-0.9-1.5-1.4c0,0,0,0,0,0v0l0,0c0,0,0,0,0-0.1c0,0,0-0.1,0-0.1c0,0,0-0.1,0.1-0.1c0,0,0.1,0,0.1,0c0,0,0,0,0,0l0,0
						c0.5,0.2,0.9,0.6,1.2,1c0-0.2-0.1-0.4-0.1-0.6l0,0c0,0,0,0,0,0v0l-0.1-0.4c0,0,0,0-0.1,0c0,0,0,0,0,0l0,0c0,0-0.2-0.5-1-0.9
						c0,0-0.1,0-0.1-0.1c0,0,0-0.1,0-0.1c0,0,0-0.1,0.1-0.1c0,0,0.1,0,0.1,0c0.4,0.1,0.6,0.3,0.9,0.6l0-0.1c0,0-0.1-0.1-0.1-0.1
						c0,0,0,0,0-0.1c0,0,0,0,0,0c0,0,0,0,0,0l0,0c0,0-0.2-0.6-1-0.9c0,0-0.1,0-0.1-0.1c0,0,0-0.1,0-0.1c0,0,0-0.1,0.1-0.1
						c0,0,0.1,0,0.1,0c0.3,0.1,0.5,0.3,0.7,0.5c-0.2-0.7-0.4-1.4-0.6-1.9c0,0,0-0.1,0-0.1c0,0,0-0.1,0.1-0.1c0,0,0.1,0,0.1,0
						c0,0,0.1,0,0.1,0.1c0.2,0.6,0.4,1.3,0.6,2.1C64.7,38.3,64.8,38.2,64.9,38z M66.8,42.9c0-0.5-0.1-1.1-0.3-1.7l0,0l0,0l0,0
						c0,0,0,0,0-0.1c0,0,0,0,0,0c0,0,0,0,0,0l0,0v0l0,0c0,0,0,0,0,0v0v0v0h0l0,0l0,0h0c0,0,0-0.1,0.1-0.1c0.1,0,0.1,0,0.1,0.1
						c0.2,0.7,0.3,1.3,0.3,1.9v0l0,0l-0.1,0l0,0l0,0L66.8,42.9C66.9,42.9,66.9,42.9,66.8,42.9L66.8,42.9L66.8,42.9L66.8,42.9
						L66.8,42.9L66.8,42.9z M65.5,37.4c-0.1,0-0.1-0.1-0.1-0.2c0-0.1,0.1-0.1,0.2-0.1l0,0l0,0c0.9,0.4,1.5,0.8,2,1.3l0,0l0,0l0,0
						l0,0c0,0,0,0-0.1,0.1c0,0,0,0,0,0l0,0l0,0l0,0l0,0C67.1,38.3,66.5,37.9,65.5,37.4z M65.9,32.1c0-0.2,0.1-0.4,0.2-0.5
						c0,0,0,0,0,0l0,0l0,0l0,0l0,0c0,0,0,0,0,0l0,0l0,0h0l0,0c0,0,0,0,0,0l0,0l0,0c0,0,0,0,0,0c0,0,0.1,0,0.1,0c0,0,0.1,0,0.1,0.1
						c0,0,0,0.1,0,0.1l0,0l0,0l0,0c-0.2,0.4-0.2,0.8-0.2,1c0.1,0.2,0.2,0.4,0.3,0.7c0.1-0.4,0.3-0.6,0.5-0.7c0,0,0.1,0,0.1,0
						c0,0,0.1,0,0.1,0.1c0,0,0,0.1,0,0.1c0,0,0,0.1-0.1,0.1c-0.4,0.2-0.4,0.9-0.4,1c0.1,0.3,0.2,0.6,0.3,0.9
						c0.2-0.4,0.4-0.7,0.8-0.8c0,0,0.1,0,0.1,0c0,0,0.1,0,0.1,0.1c0,0,0,0.1,0,0.1c0,0,0,0.1-0.1,0.1c-0.6,0.2-0.7,0.8-0.7,1
						c0.1,0.4,0.2,0.8,0.4,1.3c0.1-0.3,0.3-0.6,0.6-0.8c0,0,0.1,0,0.1,0c0,0,0.1,0,0.1,0.1c0,0,0,0.1,0,0.1c0,0,0,0.1-0.1,0.1
						c-0.5,0.3-0.6,0.8-0.6,1.1c0.1,0.3,0.2,0.6,0.3,1l0,0l0,0l0,0l0,0c0,0,0,0-0.1,0.1c0,0,0,0.1-0.1,0.1l0,0l0,0l0-0.1l0-0.1
						c-0.1-0.4-0.2-0.7-0.2-1c0,0-0.1-0.1-0.1-0.1c0,0,0-0.1,0-0.1l0,0c0,0,0,0,0,0c0,0-1.1-1.3-2.1-1.7c0,0-0.1,0-0.1-0.1
						c0,0,0-0.1,0-0.1c0,0,0-0.1,0.1-0.1c0,0,0.1,0,0.1,0c0.7,0.2,1.4,0.9,1.9,1.4c-0.1-0.4-0.2-0.7-0.3-1c0,0,0-0.1,0-0.1
						c0,0,0,0,0-0.1c0,0,0,0,0,0l0-0.1l0,0l0,0c0,0-0.7-0.8-1.7-1.2c-0.1,0-0.1-0.1-0.1-0.2c0,0,0-0.1,0.1-0.1c0,0,0.1,0,0.1,0
						c0.5,0.2,1,0.4,1.4,0.8c-0.1-0.2-0.1-0.4-0.2-0.6l0,0c0,0,0,0,0,0v0l-0.1-0.3c0,0,0,0-0.1,0c0,0,0,0,0,0l0,0
						c0,0-0.3-0.5-1.2-0.7c0,0-0.1,0-0.1-0.1c0,0,0-0.1,0-0.1c0-0.1,0.1-0.1,0.2-0.1c0,0,0,0,0,0l0,0c0.4,0.1,0.7,0.2,0.9,0.4L66,33
						c0,0-0.1,0-0.1-0.1c0,0,0,0,0-0.1c0,0,0,0,0,0c0,0-0.3-0.5-1.1-0.7c-0.1,0-0.1-0.1-0.1-0.2c0,0,0-0.1,0.1-0.1c0,0,0.1,0,0.1,0
						c0.3,0.1,0.5,0.2,0.8,0.4c-0.3-0.7-0.6-1.3-0.9-1.8c0,0,0-0.1,0-0.1c0,0,0-0.1,0.1-0.1c0,0,0.1,0,0.1,0c0,0,0.1,0,0.1,0.1
						C65.3,30.7,65.6,31.4,65.9,32.1z M68.5,32.1c-0.4-0.2-1-0.5-1.9-0.7c0,0-0.1,0-0.1-0.1c0,0,0.1-0.1,0.1-0.1
						c0.9,0.2,1.5,0.5,1.9,0.7C68.6,32,68.6,32,68.5,32.1C68.6,32,68.6,32,68.5,32.1L68.5,32.1L68.5,32.1
						C68.6,32.1,68.6,32.1,68.5,32.1L68.5,32.1L68.5,32.1C68.6,32.1,68.6,32.1,68.5,32.1C68.6,32.1,68.6,32.1,68.5,32.1L68.5,32.1
						C68.6,32.1,68.6,32.1,68.5,32.1L68.5,32.1L68.5,32.1L68.5,32.1C68.5,32.1,68.5,32.1,68.5,32.1z M64.7,24.7
						c0.4,0.5,0.8,1,1.3,1.6c0-0.2,0-0.4,0-0.5c0,0,0-0.1,0.1-0.1c0,0,0.1,0,0.1,0c0,0,0.1,0,0.1,0.1c0,0,0,0.1,0,0.1
						c-0.1,0.4,0,0.8,0,1c0.1,0.2,0.2,0.3,0.4,0.6c0-0.4,0.1-0.6,0.4-0.7c0.1,0,0.2,0,0.2,0c0,0,0,0.1,0,0.1c0,0,0,0.1-0.1,0.1
						c-0.4,0.2-0.2,0.9-0.2,1c0.2,0.3,0.3,0.5,0.4,0.7c0.1-0.4,0.3-0.7,0.6-0.9c0,0,0,0,0,0h0v0c0,0,0,0,0.1,0c0,0,0.1,0,0.1,0.1
						c0,0,0,0.1,0,0.1c0,0,0,0.1-0.1,0.1c-0.5,0.3-0.5,0.9-0.5,1.1c0.2,0.3,0.4,0.7,0.6,1.1c0.1-0.3,0.2-0.6,0.4-0.8c0,0,0,0,0,0h0
						l0,0c0,0,0,0,0.1,0c0,0,0.1,0,0.1,0c0.1,0,0.1,0.1,0,0.2c-0.4,0.4-0.4,0.9-0.4,1.1c0,0,0.3,0.6,0.3,0.6c0,0,0,0,0,0h0l0,0
						c0,0.1,0,0.1-0.1,0.1v0l0,0l0,0h0l-0.1,0h0l0,0L68.4,31c0,0-0.1,0-0.1-0.1c0,0,0,0,0-0.1c0,0,0,0,0,0c0,0,0,0-0.1,0
						c0,0-1.3-1.1-2.3-1.2c0,0-0.1,0-0.1-0.1c0,0,0-0.1,0-0.1c0,0,0-0.1,0.1-0.1c0,0,0.1,0,0.1,0c0.7,0.1,1.4,0.5,2,0.9
						c-0.2-0.3-0.3-0.6-0.5-0.9l0,0c0,0-0.1,0-0.1-0.1c0,0,0,0,0-0.1c0,0,0-0.1,0-0.1l0-0.1c0,0,0,0,0,0c0,0-0.8-0.7-1.8-0.8
						c-0.1,0-0.1-0.1-0.1-0.1c0-0.1,0.1-0.1,0.2-0.1c0.5,0.1,1,0.2,1.5,0.5c-0.1-0.1-0.2-0.3-0.3-0.5c0,0,0,0,0,0v0v0l0,0l0,0
						l-0.2-0.3c0,0,0,0-0.1,0c0,0,0,0,0,0l0,0c0,0-0.4-0.4-1.2-0.4c0,0-0.1,0-0.1,0c0,0,0-0.1,0-0.1c0,0,0-0.1,0-0.1
						c0,0,0.1,0,0.1,0c0.4,0,0.7,0.1,1,0.2c0,0,0,0,0,0l0-0.1l0,0c0,0-0.1,0-0.1-0.1c0,0,0,0,0-0.1c0,0,0,0,0,0c0,0,0,0,0,0l0,0
						c0,0-0.3-0.4-1.2-0.5c0,0-0.1,0-0.1,0c0,0,0-0.1,0-0.1c0,0,0-0.1,0-0.1c0,0,0.1,0,0.1,0c0,0,0,0,0,0c0.3,0,0.5,0.1,0.7,0.2
						c-0.4-0.6-0.8-1.1-1.2-1.5c0,0,0-0.1,0-0.1c0,0,0-0.1,0.1-0.1c0,0,0.1,0,0.1,0C64.7,24.7,64.7,24.7,64.7,24.7z M67.4,24.8
						C67.4,24.8,67.4,24.9,67.4,24.8C67.4,24.9,67.4,24.9,67.4,24.8c0,0.1-0.1,0.1-0.1,0.2l0,0l0,0l0,0l0,0
						c-0.6-0.3-1.1-0.4-1.5-0.4c0,0-0.1,0-0.1,0c0,0,0,0,0,0c0,0,0-0.1,0-0.1c0,0,0-0.1,0-0.1c0,0,0.1,0,0.1,0
						C66.2,24.3,66.8,24.5,67.4,24.8L67.4,24.8L67.4,24.8L67.4,24.8z M63.1,18.8c0-0.1,0.1-0.1,0.2-0.1c0.5,0,1.1,0.2,1.7,0.6l0,0
						l0,0l0,0l0,0c0,0,0,0,0,0.1c0,0,0,0.1,0,0.1l0,0.1l0,0l0,0l0,0c-0.7-0.4-1.2-0.5-1.7-0.6C63.2,18.9,63.1,18.9,63.1,18.8z
						 M65.4,17.1C65.4,17.1,65.4,17.1,65.4,17.1L65.4,17.1L65.4,17.1l0,0.1l0,0L65.4,17.1L65.4,17.1l0,0.1l0,0l0,0l0,0l0,0
						c-0.5,0.4-0.4,0.9-0.4,1.1c0,0,0.1,0.1,0.1,0.1l0,0.1l0,0l0,0v0v0c0,0.1,0,0.1,0,0.2l0,0.1v0l0,0l-0.1,0l0,0l0,0
						c0,0-0.1-0.1-0.1-0.1c0-0.1-0.1-0.1-0.1-0.1v0c0,0-0.1,0-0.1-0.1c0,0,0,0,0-0.1c0,0,0-0.1,0-0.1l-0.1-0.1c0,0,0,0,0,0
						c0,0-0.9-0.6-1.9-0.6c-0.1,0-0.2-0.1-0.1-0.1c0-0.1,0.1-0.1,0.2-0.1c0,0,0,0,0,0l0,0c0.5,0,1,0.2,1.5,0.4
						c-0.1-0.1-0.2-0.3-0.3-0.4l0,0l0,0l0,0v0l0,0l-0.2-0.3c0,0,0,0-0.1,0c0,0,0,0,0,0l0,0c0,0-0.4-0.4-1.3-0.3c0,0-0.1,0-0.1,0
						c0,0,0-0.1,0-0.1c0,0,0-0.1,0-0.1c0,0,0.1,0,0.1,0c0.4,0,0.7,0,1,0.2c0,0,0,0,0,0l0-0.1l0,0c0,0-0.1,0-0.1,0c0,0,0,0,0-0.1
						c0,0,0,0,0,0c0,0,0,0,0,0l0,0c0,0-0.4-0.4-1.2-0.4c0,0-0.1,0-0.1,0c0,0,0-0.1,0-0.1c0,0,0-0.1,0-0.1c0,0,0.1,0,0.1,0
						c0.3,0,0.5,0,0.8,0.1c-0.5-0.5-0.9-1-1.3-1.4c0,0,0-0.1,0-0.1c0,0,0-0.1,0-0.1c0,0,0.1,0,0.1,0c0,0,0.1,0,0.1,0
						c0.5,0.4,0.9,0.9,1.4,1.5c0-0.2,0-0.4,0-0.5c0,0,0-0.1,0.1-0.1c0,0,0.1,0,0.1,0c0,0,0.1,0,0.1,0.1c0,0,0,0.1,0,0.1v0l0,0v0
						c-0.1,0.4,0,0.8,0.1,1c0.1,0.2,0.3,0.3,0.4,0.5c0-0.4,0.1-0.6,0.3-0.8c0.1,0,0.2,0,0.2,0c0,0,0,0.1,0,0.1c0,0,0,0.1-0.1,0.1
						c-0.3,0.3-0.1,1-0.1,1.1c0.2,0.2,0.3,0.5,0.5,0.7c0-0.4,0.2-0.7,0.5-0.9v0l0,0l0,0c0,0,0.1,0,0.1,0C65.3,17,65.4,17,65.4,17.1
						C65.4,17.1,65.4,17.1,65.4,17.1L65.4,17.1C65.4,17.1,65.4,17.1,65.4,17.1C65.4,17.1,65.4,17.1,65.4,17.1L65.4,17.1z M65.6,20.8
						C65.6,20.8,65.6,20.9,65.6,20.8c0,0.5,0.1,0.9,0.2,1c0.1,0.2,0.3,0.3,0.4,0.5c0-0.4,0.1-0.6,0.3-0.8c0,0,0.1,0,0.1,0
						c0,0,0.1,0,0.1,0c0,0,0,0.1,0,0.1c0,0,0,0.1-0.1,0.1c-0.3,0.3-0.1,1-0.1,1.1c0.2,0.2,0.4,0.5,0.5,0.7c0-0.4,0.2-0.7,0.5-0.9
						l0,0h0l0,0v0c0,0,0.1,0,0.1,0c0,0,0.1,0,0.1,0.1c0,0,0,0.1,0,0.1c0,0,0,0.1-0.1,0.1c-0.5,0.4-0.4,0.9-0.3,1.1
						c0,0,0.2,0.3,0.2,0.3l0,0l0,0v0l0,0l0,0l0,0h0l0,0l0,0.1c0,0,0,0.1-0.1,0.1c0,0.1,0,0.1-0.1,0.1h0l0,0c0,0,0,0,0,0l-0.1-0.2
						l-0.1-0.1l0,0c0,0-0.1,0-0.1-0.1c0,0,0,0,0-0.1c0,0,0-0.1,0-0.1l-0.1-0.1c0,0,0,0,0,0c0,0-0.9-0.6-1.9-0.6c0,0-0.1,0-0.1,0
						c0,0,0-0.1,0-0.1c0-0.1,0.1-0.1,0.1-0.1c0,0,0,0,0,0l0,0c0.5,0,1,0.1,1.5,0.3c-0.1-0.1-0.2-0.3-0.3-0.4l0,0l0,0l0,0v0l-0.2-0.3
						c0,0,0,0-0.1,0c0,0,0,0,0,0l0,0c0,0-0.5-0.4-1.3-0.3c0,0-0.1,0-0.1,0c0,0,0-0.1-0.1-0.1c0,0,0-0.1,0-0.1c0,0,0.1,0,0.1,0
						c0.4,0,0.7,0,1,0.1c0,0,0,0,0,0l0-0.1l0,0c0,0-0.1,0-0.1,0c0,0,0,0,0-0.1c0,0,0,0,0,0c0,0,0,0,0,0l0,0c0,0-0.4-0.4-1.2-0.4
						c0,0-0.1,0-0.1,0c0,0,0-0.1,0-0.1c0,0,0-0.1,0-0.1c0,0,0.1,0,0.1,0c0.3,0,0.5,0,0.8,0.1c-0.5-0.5-1-1-1.4-1.4c0,0,0-0.1,0-0.1
						c0,0,0-0.1,0-0.1c0,0,0.1,0,0.1,0c0,0,0.1,0,0.1,0c0.5,0.4,1,0.9,1.5,1.5c0-0.2,0-0.4,0-0.5c0,0,0-0.1,0.1-0.1c0,0,0.1,0,0.1,0
						C65.5,20.8,65.6,20.8,65.6,20.8z M68.7,20.7c0,0,0,0.1,0,0.1c0,0,0,0.1-0.1,0.1c-0.6,0.2-0.7,0.7-0.7,0.9l0.2,0.6l0,0l0,0
						l-0.1,0l0,0l0,0c0,0-0.1-0.1-0.1-0.1c0-0.1-0.1-0.1-0.1-0.1l0,0l0,0l0,0c0,0,0,0,0,0c0,0,0,0,0,0l0,0v0l0-0.1l0-0.1l0,0
						c0,0,0,0,0-0.1c0,0,0,0,0-0.1c0,0,0-0.1,0-0.1l0-0.1l0,0c0,0-0.6-0.8-1.6-1.2l0,0v0c0,0,0,0-0.1-0.1c0,0,0-0.1,0-0.1
						c0,0,0-0.1,0.1-0.1c0,0,0.1,0,0.1,0c0.5,0.2,0.9,0.4,1.3,0.8c0-0.2-0.1-0.3-0.1-0.5c0,0,0,0,0,0v0l0,0v0c0-0.1,0-0.1-0.1-0.2
						l0-0.1c0,0,0,0,0,0c0,0,0,0,0,0l0,0c0,0-0.3-0.5-1.1-0.7c0,0-0.1,0-0.1-0.1c0,0,0-0.1,0-0.1c0-0.1,0.1-0.1,0.2-0.1c0,0,0,0,0,0
						l0,0c0.3,0.1,0.6,0.3,0.8,0.4c0,0,0-0.1,0-0.1c0,0-0.1-0.1-0.1-0.1c0,0,0,0,0-0.1c0,0,0,0,0,0l0,0l0,0c0,0-0.2-0.5-1-0.7l0,0v0
						c0,0-0.1,0-0.1,0c0,0,0-0.1,0-0.1c0,0,0-0.1,0.1-0.1c0,0,0.1,0,0.1,0c0.3,0.1,0.5,0.2,0.7,0.4C66.2,18,66,17.5,65.7,17
						c0,0,0-0.1,0-0.1c0,0,0-0.1,0.1-0.1c0,0,0.1,0,0.1,0c0,0,0.1,0,0.1,0.1c0.3,0.5,0.6,1.2,0.9,1.9c0-0.2,0.1-0.3,0.2-0.5
						c0,0,0.1-0.1,0.1-0.1c0,0,0.1,0,0.1,0c0,0,0.1,0,0.1,0.1c0,0,0,0.1,0,0.1C67,18.7,67,19.1,67,19.3c0.1,0.2,0.1,0.4,0.2,0.6
						c0.1-0.3,0.3-0.6,0.5-0.7c0,0,0.1,0,0.1,0c0,0,0.1,0,0.1,0.1c0,0,0,0.1,0,0.1c0,0,0,0.1-0.1,0.1c-0.4,0.1-0.5,0.9-0.5,1
						c0.1,0.2,0.2,0.5,0.2,0.8c0.2-0.3,0.4-0.6,0.8-0.7c0,0,0,0,0,0h0v0C68.5,20.6,68.6,20.6,68.7,20.7
						C68.6,20.6,68.6,20.7,68.7,20.7z M69.6,27c-0.1,0.4-0.1,0.8-0.2,1.2c0.2-0.2,0.5-0.4,0.8-0.4c0,0,0.1,0,0.1,0
						c0,0,0.1,0,0.1,0.1c0,0,0,0.1,0,0.1c0,0-0.1,0.1-0.1,0.1l0,0c-0.6,0.1-0.9,0.5-1,0.7c0,0,0,0.1,0,0.1l0,0.1v0l0,0l-0.1,0l0,0
						l0,0c0-0.1-0.1-0.1-0.1-0.2l0-0.1c0,0,0,0,0,0l0,0l0,0l0,0l0,0l0,0c0,0,0,0,0,0h0l0,0c0,0-0.4-1.6-1.1-2.2c0,0,0-0.1,0-0.1
						c0,0,0-0.1,0-0.1c0.1-0.1,0.2-0.1,0.2,0c0.5,0.5,0.8,1.2,1.1,1.8c0-0.3,0.1-0.7,0.1-1h0c0,0,0-0.1,0-0.1c0,0,0,0,0-0.1
						c0,0,0-0.1,0-0.1l0-0.1c0,0,0,0,0,0c0,0-0.2-1-1-1.6c0,0,0-0.1,0-0.1c0,0,0-0.1,0-0.1c0,0,0.1,0,0.1,0c0,0,0.1,0,0.1,0
						c0.4,0.3,0.7,0.7,0.9,1.2c0-0.2,0-0.3,0.1-0.5l0,0v0l0,0c0,0,0,0,0,0v0l0-0.3c0,0,0,0-0.1-0.1c0,0-0.1-0.6-0.7-1
						c0,0-0.1-0.1-0.1-0.1c0,0,0-0.1,0-0.1c0,0,0.1,0,0.1-0.1c0,0,0.1,0,0.1,0c0.3,0.2,0.5,0.4,0.6,0.7c0,0,0-0.1,0-0.1v0
						c0,0,0-0.1,0-0.1c0,0,0,0,0-0.1c0,0,0,0,0,0c0,0,0,0,0,0v0c0,0,0-0.5-0.7-1c0,0-0.1-0.1-0.1-0.1c0,0,0-0.1,0-0.1
						c0,0,0.1,0,0.1,0c0,0,0.1,0,0.1,0c0.2,0.2,0.4,0.3,0.5,0.6c0-0.7,0-1.3-0.1-1.9c0,0,0-0.1,0-0.1c0,0,0.1,0,0.1-0.1
						c0,0,0.1,0,0.1,0c0,0,0.1,0.1,0.1,0.1c0.1,0.6,0.1,1.3,0.1,2c0.1-0.2,0.2-0.3,0.4-0.4c0,0,0.1,0,0.1,0c0,0,0.1,0,0.1,0.1
						c0,0,0,0.1,0,0.1c0,0,0,0.1-0.1,0.1c-0.3,0.2-0.5,0.6-0.6,0.8c0,0.2,0,0.4,0,0.7c0.2-0.3,0.5-0.4,0.8-0.4c0,0,0.1,0,0.1,0
						c0,0,0,0.1,0,0.1c0,0.1-0.1,0.1-0.2,0.1c-0.5,0-0.8,0.7-0.8,0.7c0,0.3-0.1,0.6-0.1,0.8c0.3-0.3,0.6-0.4,1-0.4c0,0,0.1,0,0.1,0
						c0,0,0,0.1,0,0.1c0,0,0,0.1,0,0.1c0,0,0,0,0,0v0h0h0C70,26.3,69.7,26.8,69.6,27z M71.6,34.3c-0.6,0-0.9,0.4-1.1,0.6
						c-0.1,0.3-0.2,0.7-0.3,1c0.2-0.2,0.4-0.2,0.7-0.2l0,0l0,0h0c0,0,0.1,0,0.1,0c0,0,0,0,0,0.1v0l0,0l0,0L70.8,36l0,0c0,0,0,0,0,0
						l0,0h0c0,0,0,0-0.1,0l0,0c-0.1,0.1-0.2,0.2-0.4,0.2c0,0-0.1,0.1-0.1,0.1h0l0,0l0,0l0,0c-0.2,0.1-0.3,0.2-0.4,0.3l0,0l0,0l0,0
						l-0.1,0l0,0l0,0c0,0,0.1-0.9-1-2.4c-0.1-0.1-0.1-0.1,0-0.1l0,0h0c0,0,0,0,0,0c0,0,0-0.1,0.1-0.1c0.1,0,0.2,0,0.2,0c0,0,0,0,0,0
						l0,0c0.7,0.9,0.9,1.6,1,2c0.1-0.4,0.2-0.7,0.4-1.1c0,0,0-0.1,0-0.1c0,0,0,0,0.1-0.1c0,0,0,0,0,0c0,0,0,0,0,0h0l0,0
						c0,0-0.2-1.6-0.8-2.3c0,0,0-0.1,0-0.1c0,0,0-0.1,0.1-0.1c0.1,0,0.2,0,0.2,0c0.4,0.5,0.7,1.3,0.8,1.9c0.1-0.3,0.2-0.6,0.3-1l0,0
						c0,0,0-0.1,0-0.1c0,0,0,0,0-0.1c0,0,0-0.1,0-0.1l0-0.1c0,0,0,0,0,0c0,0-0.1-1-0.8-1.7c0,0,0-0.1,0-0.1c0,0,0-0.1,0-0.1
						c0,0,0.1,0,0.1,0c0,0,0.1,0,0.1,0c0,0,0,0,0,0v0c0.3,0.3,0.6,0.8,0.7,1.3c0-0.2,0.1-0.3,0.1-0.5v0v0c0,0,0,0,0,0l0,0l0,0
						l0.1-0.3c0,0,0,0,0,0c0,0,0,0,0,0v0c0,0,0-0.6-0.6-1.1c0,0,0,0,0,0v0l0,0c0-0.1,0-0.1,0-0.2c0,0,0.1,0,0.1,0c0,0,0.1,0,0.1,0
						c0.3,0.2,0.4,0.5,0.5,0.8c0,0,0-0.1,0-0.1l0,0c0,0,0-0.1,0-0.1c0,0,0,0,0-0.1c0,0,0,0,0,0c0,0,0,0,0,0v0c0,0,0.1-0.5-0.5-1.1
						c0,0,0-0.1,0-0.1c0,0,0-0.1,0-0.1c0,0,0.1,0,0.1,0c0,0,0.1,0,0.1,0c0.2,0.2,0.3,0.4,0.4,0.6c0.1-0.7,0.2-1.3,0.2-1.9
						c0,0,0-0.1,0-0.1c0,0,0.1,0,0.1,0c0,0,0.1,0,0.1,0c0,0,0,0.1,0,0.1c0,0.6-0.1,1.3-0.2,2c0.1-0.1,0.3-0.3,0.4-0.3
						c0,0,0.1,0,0.1,0c0,0,0.1,0,0.1,0.1c0,0.1,0,0.2,0,0.2c-0.3,0.2-0.6,0.5-0.7,0.7c0,0.2-0.1,0.4-0.1,0.6
						c0.3-0.3,0.5-0.4,0.8-0.3c0,0,0.1,0,0.1,0.1c0,0,0,0.1,0,0.1c0,0,0,0.1-0.1,0.1c0,0-0.1,0-0.1,0c-0.4-0.1-0.8,0.6-0.9,0.7
						c-0.1,0.3-0.1,0.6-0.2,0.8c0.3-0.2,0.7-0.3,1.1-0.3c0,0,0.1,0,0.1,0.1c0,0,0,0.1,0,0.1c0,0,0,0.1-0.1,0.1c0,0-0.1,0-0.1,0
						c-0.6-0.1-1,0.3-1.1,0.5c-0.1,0.4-0.2,0.8-0.3,1.2c0.3-0.2,0.6-0.3,0.9-0.3c0.1,0,0.2,0.1,0.2,0.1c0,0,0,0.1,0,0.1
						C71.7,34.3,71.6,34.3,71.6,34.3z M69.2,40.8c-0.2,0.3-0.5,0.7-0.8,1.1c0.3-0.1,0.7-0.1,1-0.1c0,0,0,0,0.1,0c0,0,0,0,0,0
						c0.1,0,0.1,0,0,0.1l0,0l0,0c0,0-0.1,0-0.1,0L69.3,42c0,0,0,0,0,0l0,0l0,0h0c-0.5,0-0.9,0.2-1.1,0.3c0,0,0,0,0,0l0,0l0,0l0,0
						l0,0l0,0l-0.1,0c-0.1,0-0.1,0.1-0.2,0.1l0,0l0,0l0,0l0,0l0,0l0.1-0.1c0,0,0-0.1,0.1-0.1c0,0,0-0.1,0-0.1c0,0,0,0,0.1-0.1
						c0,0,0,0,0,0c0,0,0,0,0-0.1c0,0,0.4-1.6,0-2.6c0,0,0-0.1,0-0.1c0,0,0-0.1,0.1-0.1c0,0,0.1,0,0.1,0c0,0,0.1,0,0.1,0.1
						c0.3,0.7,0.2,1.6,0.1,2.2c0.2-0.3,0.4-0.6,0.6-0.9l0,0c0,0,0-0.1,0-0.1c0,0,0,0,0.1,0c0,0,0.1-0.1,0.1-0.1l0-0.1l0,0
						c0,0,0.2-1-0.2-2c0-0.1,0-0.2,0.1-0.2c0,0,0.1,0,0.1,0c0,0,0.1,0,0.1,0.1c0,0,0,0.1,0,0.1c0.2,0.4,0.3,0.9,0.3,1.5
						c0.1-0.2,0.2-0.3,0.3-0.5c0,0,0,0,0,0v0l0,0v0l0.2-0.3c0,0,0,0,0,0c0,0,0,0,0,0l0,0c0,0,0.2-0.6-0.2-1.3c0-0.1,0-0.1,0-0.1l0,0
						l0,0c0,0,0,0,0,0c0,0,0-0.1,0.1-0.1c0,0,0.1,0,0.1,0c0,0,0.1,0,0.1,0.1l0,0l0,0l0,0l0,0c0,0,0,0,0,0s0,0,0,0l0,0c0,0,0,0,0,0v0
						c0.2,0.3,0.3,0.6,0.3,1c0,0,0,0,0,0l0-0.1c0,0,0,0,0-0.1l0,0l0,0l0,0l0,0h0c0,0,0,0,0,0c0,0,0,0,0,0l0,0l0,0l0,0
						c0,0,0.2-0.5-0.1-1.2c0,0,0-0.1,0-0.1c0,0,0-0.1,0.1-0.1c0,0,0.1,0,0.1,0c0,0,0.1,0,0.1,0.1c0.1,0.2,0.2,0.5,0.2,0.8
						c0.4-0.7,0.6-1.3,0.8-1.8c0,0,0-0.1,0.1-0.1c0,0,0.1,0,0.1,0c0,0,0.1,0,0.1,0.1c0,0,0,0.1,0,0.1c0,0,0,0,0,0l0,0
						c-0.2,0.6-0.5,1.2-0.9,2c0.2-0.1,0.4-0.2,0.5-0.2c0,0,0.1,0,0.1,0c0,0,0.1,0,0.1,0.1c0,0,0,0.1,0,0.1c0,0-0.1,0.1-0.1,0.1
						c-0.4,0.1-0.8,0.4-0.9,0.5c-0.1,0.2-0.2,0.4-0.4,0.6c0.3-0.2,0.6-0.2,0.8-0.1v0l0,0l0,0c0.1,0,0.1,0.1,0.1,0.2
						c0,0-0.1,0.1-0.1,0.1c0,0-0.1,0-0.1,0v0h0h0l0,0h0c-0.4-0.2-1.1,0.3-1.1,0.4c-0.2,0.3-0.3,0.5-0.5,0.8c0.4-0.1,0.8-0.1,1.2,0
						c0,0,0.1,0,0.1,0.1c0,0,0,0.1,0,0.1c0,0,0,0.1-0.1,0.1c0,0-0.1,0-0.1,0C70,40.3,69.5,40.6,69.2,40.8z M64.6,49
						c-0.4-0.1-1.3,0-1.3,0c0,0,0,0-0.1,0c-0.1,0.1-0.5,0.4-0.5,0.4l0,0l0,0h0l0,0l0,0h0l0,0l0,0c0,0,0,0-0.1,0c0,0,0,0-0.1,0
						l-0.1,0l-0.1,0h0l0,0l0-0.1l0,0l0,0l0.6-0.4c0,0,0,0,0,0c0,0,0,0,0,0l0,0c0,0,0.7-0.7,0.6-2.8c0,0,0,0,0-0.1l0,0h0
						c0,0,0.1-0.1,0.1-0.1c0,0,0.1,0,0.1,0c0,0,0,0.1,0,0.1c0,1.3-0.2,2-0.4,2.5c0.4-0.3,0.7-0.6,1.1-0.8c0,0,0,0,0-0.1l0,0l0,0
						c0,0,0,0,0.1,0l0,0l0,0c0,0,0.9-1.6,0.7-2.6c0,0,0-0.1,0-0.1c0,0,0.1,0,0.1-0.1c0.1,0,0.2,0.1,0.2,0.1l0,0l0,0c0,0,0,0,0,0l0,0
						c0.1,0.8-0.3,1.7-0.5,2.3c0.3-0.3,0.6-0.5,0.9-0.8h0c0,0,0-0.1,0-0.1c0,0,0,0,0.1,0c0,0,0.1-0.1,0.1-0.1l0.1-0.1l0,0
						c0,0,0.5-1,0.4-2c0-0.1,0-0.1,0.1-0.2c0.1,0,0.2,0,0.2,0.1c0,0,0,0,0,0c0.1,0.5,0,1.1-0.2,1.6c0.2-0.2,0.4-0.3,0.5-0.5l0,0h0
						l0,0l0.3-0.3c0,0,0-0.1,0-0.1c0,0,0.4-0.5,0.2-1.4c0-0.1,0-0.2,0.1-0.2c0,0,0.1,0,0.1,0c0,0,0.1,0,0.1,0.1
						c0.1,0.4,0.1,0.7,0,1.1c0,0,0.1-0.1,0.1-0.1l0-0.1c0,0,0-0.1,0-0.1c0,0,0,0,0.1-0.1c0,0,0,0,0,0c0,0,0,0,0,0l0,0
						c0,0,0.4-0.5,0.2-1.3c0,0,0-0.1,0-0.1c0,0,0.1-0.1,0.1-0.1c0,0,0.1,0,0.1,0c0,0,0.1,0.1,0.1,0.1l0,0c0,0,0,0,0,0v0l0,0
						c0.1,0.3,0,0.6,0,0.9c0.6-0.6,1-1.2,1.4-1.7c0-0.1,0.1-0.1,0.2,0c0,0,0.1,0.1,0.1,0.1c0,0,0,0.1,0,0.1
						c-0.4,0.6-0.9,1.1-1.5,1.8c0.2-0.1,0.4-0.1,0.6-0.1c0,0,0.1,0,0.1,0c0,0,0,0.1,0,0.1c0,0,0,0.1,0,0.1c0,0-0.1,0-0.1,0
						c-0.5,0-0.9,0.2-1.1,0.3c-0.2,0.2-0.3,0.3-0.6,0.6c0.4-0.1,0.7-0.1,1,0.1h0l0,0l0,0c0.1,0.1,0.1,0.1,0,0.2c0,0-0.1,0-0.1,0.1
						c0,0-0.1,0-0.1,0c-0.4-0.3-1.2,0.1-1.3,0.1c-0.2,0.2-0.5,0.5-0.7,0.7c0.3,0,0.8,0,1.2,0.3c0,0,0,0.1,0,0.1c0,0,0,0.1,0,0.1
						c0,0-0.1,0-0.1,0c0,0-0.1,0-0.1,0c-0.5-0.5-1.2-0.3-1.4-0.2c-0.3,0.3-0.7,0.6-1.1,0.9c0.4,0,0.7,0,1.1,0.2c0,0,0.1,0,0.1,0.1
						c0,0,0,0.1,0,0.1c0,0-0.1,0.1-0.1,0.1c0,0-0.1,0-0.1,0c-0.6-0.3-1.2-0.1-1.4,0c-0.4,0.3-0.8,0.6-1.2,0.9c0.4,0,0.7,0,1,0
						c0.1,0,0.1,0.1,0.1,0.2C64.8,49,64.7,49,64.6,49z"/>
					<polygon class="st3" points="67.5,45.2 67.4,45.2 67.4,45.2 					"/>
					<path class="st3" d="M60.5,52.4L60.5,52.4C60.5,52.4,60.5,52.4,60.5,52.4L60.5,52.4L60.5,52.4L60.5,52.4L60.5,52.4z"/>
					<polygon class="st3" points="61,43.4 61.1,43.3 61,43.4 					"/>
					<path class="st3" d="M51.7,56.7c0-0.1,0-0.2,0.1-0.2h0c0,0,0,0,0.1,0c0,0.1,0,0.2,0,0.3C51.8,56.7,51.7,56.7,51.7,56.7z"/>
				</g>
			</g>
			<path class="st6" d="M33.6,40.3c0,0-2-2.6-2-18.1h26.2c-0.1,15.5-2,18.1-2,18.1c-3.7,7.9-11,11.1-11,11.1S37.3,48.2,33.6,40.3z"
				/>
			<path class="st7" d="M53.4,37.6l0-3.8c0-0.8,0-1.2,0-1.2c2.4-1.3,0.5-1.4,0.5-1.4h-6.9l6.8-7l-0.6-0.5c-4.1,3.1-7.6,0-7.6,0h-1
				c-3.7,2.8-7,2.6-7,2.6c-3.5,0.1-0.3,1.6-0.3,1.6v4.4c-3,1.6-0.5,1.7-0.5,1.7h6.2l-7.4,7.3l0.9,0.4c4.3-2.7,8.3,0.3,8.3,0.3h0.9
				c1.3-1.5,5.6-2.9,7.7-2.9C55.7,39.1,53.4,37.6,53.4,37.6z M41.3,31.8v-5.2l0.8-0.3c2.5,3.4,8.3,0.3,8.3,0.3l-5,5.2H41.3z
				 M48.6,39.2c0,0-2.8-3.1-9.4,0.1l5.9-5.9l4.5,0l0,5.8H48.6z"/>
			<g>
				<path class="st8" d="M41.3,27.9v5.2h4.2l4.7-5.2c0,0-5.6,3.2-8.1-0.2L41.3,27.9z"/>
				<path class="st8" d="M45.1,34.7l4.5,0l0,5.8h-0.9c0,0-2.8-3.1-9.4,0.1L45.1,34.7z"/>
				<path class="st8" d="M47.1,32.6H54c0,0,1.9,0.1-0.5,1.4c0,0-0.1,0.4,0,1.2l0,3.8c0,0,2.3,1.5,0.2,1.6c-2.1,0-6.4,1.4-7.7,2.9H45
					c0,0-4-3.1-8.3-0.3l-0.9-0.4l7.1-7.3l-5.9,0c0,0-2.5-0.2,0.5-1.7v-4.4c0,0-3.2-1.6,0.3-1.6c0,0,3.3,0.2,7-2.6h1
					c0,0,3.4,3.1,7.6,0l0.6,0.5L47.1,32.6z"/>
			</g>
			<path class="st3" d="M44.9,16.4c-5,0-9.1,0.4-9.1,0.8c0,0.5,4.1,0.8,9.1,0.8c5,0,9.1-0.4,9.1-0.8C54,16.7,49.9,16.4,44.9,16.4z"
				/>
			<path class="st3" d="M54.9,17.2c0,0,1.3-2-5-2.6l-5-0.2L40,14.5c-6.3,0.6-5,2.6-5,2.6s0.4-1.3,9.9-1.2
				C54.4,16,54.5,16.8,54.9,17.2z"/>
			<g>
				<g>
					<path class="st3" d="M36.1,13.5c0,0-1.3,0.6,0.3,1.3C36.4,14.8,35.6,14.1,36.1,13.5z"/>
					<path class="st3" d="M53.7,13.6c0,0,1.3,0.6-0.3,1.3C53.4,14.9,54.2,14.2,53.7,13.6z"/>
					<path class="st3" d="M49.3,13.6c-1.2-0.1-2.9,0.2-2.9,0.2s3-0.9,5.6,0.3C52.2,14.2,50.9,13.8,49.3,13.6z"/>
					<path class="st3" d="M45.2,13.6c-1.2,0-2.9,0.3-2.9,0.3s2.8-1.1,5.6,0C48,14,46.7,13.6,45.2,13.6z"/>
					<path class="st3" d="M40.5,13.6c-1.4,0-2.8,0.5-2.8,0.5s2.8-1.2,5.6-0.2C43.5,13.9,42.1,13.6,40.5,13.6z"/>
					<path class="st3" d="M36.6,13.6L36.6,13.6c0.1,0,6.6-0.9,16.7,0l0,0c0.1,0,0.2-0.1,0.2-0.1c0-0.1-0.1-0.2-0.1-0.2l0,0
						c-10.1-0.9-16.7,0-16.7,0l0,0c-0.1,0-0.1,0.1-0.1,0.2C36.4,13.5,36.5,13.6,36.6,13.6L36.6,13.6z"/>
				</g>
			</g>
			<path class="st3" d="M48.2,1.8c0-0.3-1.3-0.6-3-0.6c-1.6,0-3,0.3-3,0.6c0,0.3,0.9,0.5,2.2,0.6l0,0c0,0,0.3,0.2,0,0.5l0,0
				c-0.3,0.2-0.5,0.6-0.5,1c0,0,0,0.1,0,0.1c0.4-0.1,0.8-0.1,1.3-0.2c0.4,0,0.9,0,1.3,0.1c0,0,0-0.1,0-0.1c0-0.4-0.2-0.7-0.5-0.9
				l-0.1,0c-0.3-0.3,0-0.5,0-0.5v0C47.2,2.3,48.2,2.1,48.2,1.8z M43.4,1.7c0,0.2-0.2,0.3-0.2,0.3c-0.6,0.1-0.7-0.2,0-0.4
				c0.7-0.2,3.6-0.2,3.9,0c0.3,0.1,0,0.2,0,0.2C45.9,1.5,43.4,1.7,43.4,1.7z"/>
			<path class="st3" d="M54.8,5.5c-0.7,0-0.2,0.7-1.5-0.1C52,4.6,52,4.5,50.6,4.4c-1.4-0.1-1.8,0.5-2.1,0.6
				c-0.3,0.2-0.7-0.4-0.9-0.5c-0.2-0.1-1.1-0.4-2.3-0.4c-1.3,0-1.8,0.1-2.3,0.5C42.4,5,42.2,4.9,42,4.9c-0.2,0-0.9-0.7-2.4-0.7
				c-1.5,0-2,0.5-2.2,0.6c-0.2,0.1-0.9,1.4-1.1,0.7C36.1,4.8,35,5,34.9,5.1c-0.1,0.2-0.5,0.4-0.5,0.4S31.5,6.1,32,7.3
				c0.5,1.3,2,1.6,2.5,1.7c0.6,0.1,0.3,0.6,0.3,0.6s-0.2,1.7,0.6,1.8c0.8,0,0.9-0.2,0.8,0.5c0,0.5-0.1,0.9,0.6,1
				c1.3-0.1,5.4-0.5,11.4-0.3c1.3,0,2.6,0.1,3.9,0.2c0,0,1.2,0.2,1.4-0.5c0.2-0.7,0.3-1,0.8-0.9c0.5,0.1-0.2-1.7,0.3-1.4
				c0.5,0.3,0.6,0.4,0.7,0.3c0.7-1.4,1.3-1.6,1.3-1.6c0.8-0.5,0.5-0.3,0.9-0.7C58.3,7,56.1,5.4,54.8,5.5z M34.6,5.9
				c-1.4,1.5,0.5,2.9,0.5,2.9C30.4,7.7,34.6,5.9,34.6,5.9z M38.8,4.9c-1.4,1.5,0.5,2.9,0.5,2.9C34.5,6.7,38.8,4.9,38.8,4.9z
				 M39.8,8.2c0.5,0,0.9,0.4,0.9,0.9c0,0.5-0.4,0.9-0.9,0.9c-0.5,0-0.9-0.4-0.9-0.9C38.9,8.6,39.3,8.2,39.8,8.2z M40.2,11
				c-0.9,0-1.6-0.7-1.6-1.5c0-0.2,0.1-0.4,0.1-0.6c-0.1,0.2-0.1,0.3-0.1,0.5c0,0.7,0.6,1.3,1.4,1.3c0.8,0,1.4-0.6,1.4-1.3
				c0-0.7-0.6-1.3-1.4-1.3c-0.1,0-0.3,0-0.4,0.1C39.8,8.1,40,8,40.2,8c0.9,0,1.6,0.7,1.6,1.5C41.7,10.3,41,11,40.2,11z M46.4,8
				c0.2,0,0.3,0.1,0.3,0.3c0,0.2-0.1,0.3-0.3,0.3c-0.2,0-0.3-0.1-0.3-0.3C46,8.1,46.2,8,46.4,8z M45.1,9.3c0.2-0.3,0.2-0.7-0.3-0.7
				c-0.5,0-0.4,0.4-0.3,0.7c-0.5-0.4-1.1-1.7,0.3-1.7C46.7,7.5,45.2,9.1,45.1,9.3z M43.8,4.6C42.6,5.9,44.2,7,44.2,7
				C40.3,6.1,43.8,4.6,43.8,4.6z M43.7,8.3c0,0.2-0.1,0.3-0.3,0.3c-0.2,0-0.3-0.1-0.3-0.3c0-0.2,0.1-0.3,0.3-0.3
				C43.5,8,43.7,8.1,43.7,8.3z M42.4,9.7c0-1.8,1.7-0.4,1.8-0.3c-0.4-0.2-0.8-0.2-0.8,0.3c0,0.5,0.4,0.4,0.8,0.3
				C43.8,10.3,42.4,11,42.4,9.7z M43.4,11.2c-0.2,0-0.3-0.1-0.3-0.3c0-0.2,0.1-0.3,0.3-0.3c0.2,0,0.3,0.1,0.3,0.3
				C43.7,11.1,43.5,11.2,43.4,11.2z M44.9,11.7c-1.9,0-0.4-1.6-0.3-1.7c-0.2,0.3-0.2,0.7,0.3,0.7c0.5,0,0.4-0.4,0.3-0.7
				C45.6,10.4,46.3,11.7,44.9,11.7z M46.4,11.2c-0.2,0-0.3-0.1-0.3-0.3c0-0.2,0.1-0.3,0.3-0.3c0.2,0,0.3,0.1,0.3,0.3
				C46.7,11.1,46.6,11.2,46.4,11.2z M45.7,9.8c0.4,0.1,0.8,0.2,0.8-0.3c0-0.5-0.4-0.4-0.8-0.3c0.5-0.4,1.8-1.1,1.8,0.2
				C47.5,11.3,45.8,9.9,45.7,9.8z M49.4,8.2c0.5,0,0.9,0.4,0.9,0.9c0,0.5-0.4,0.9-0.9,0.9c-0.5,0-0.9-0.4-0.9-0.9
				C48.5,8.5,48.9,8.2,49.4,8.2z M49.8,10.9c-0.9,0-1.6-0.7-1.6-1.5c0-0.2,0.1-0.4,0.1-0.6c-0.1,0.2-0.1,0.3-0.1,0.5
				c0,0.7,0.6,1.3,1.4,1.3c0.8,0,1.4-0.6,1.4-1.3c0-0.7-0.6-1.3-1.4-1.3c-0.1,0-0.3,0-0.4,0.1C49.4,8.1,49.6,8,49.8,8
				c0.9,0,1.6,0.7,1.6,1.5C51.4,10.3,50.7,10.9,49.8,10.9z M51.2,7.9c0,0,1.9-1.4,0.5-2.9C51.7,4.9,55.9,6.8,51.2,7.9z M54.7,9
				c0,0,1.9-1.4,0.5-2.9C55.2,6.1,59.4,7.9,54.7,9z"/>
			<g>
				<polygon class="st9" points="50.2,59.4 46.4,59.4 47.5,60.4 51.4,60.4 				"/>
				<polygon class="st9" points="49.2,58.6 45.5,58.6 45.9,59 49.7,59 				"/>
				<polygon class="st9" points="52,60.9 48,60.9 48.4,61.3 52.4,61.3 				"/>
				<polygon class="st9" points="39.8,58.9 43.5,58.9 43.9,58.6 40.3,58.6 				"/>
				<polygon class="st9" points="37.1,61.2 41.1,61.2 41.4,60.9 37.5,60.9 				"/>
				<polygon class="st9" points="38.1,60.4 41.9,60.4 43,59.4 39.3,59.4 				"/>
				<path class="st9" d="M39.9,57.9v-2.4c-0.4,0.3-0.7,0.7-0.7,1.2C39.2,57.2,39.5,57.6,39.9,57.9z"/>
				<path class="st9" d="M48.6,58.1c0.1,0,0.3,0,0.4-0.1v-2.8c-0.1,0-0.3-0.1-0.4-0.1H48v2.7h-0.5v-2.7h-1v2.7H46v-2.7h-1.1v2.7
					h-0.5v-2.7h-1.1v2.7h-0.5v-2.7h-1v2.7h-0.5v-2.7h-0.5c-0.1,0-0.3,0-0.4,0.1v2.8c0.1,0,0.3,0,0.4,0H48.6z"/>
				<path class="st9" d="M50.1,56.7c0-0.5-0.3-0.9-0.6-1.2v2.4C49.9,57.6,50.1,57.1,50.1,56.7z"/>
			</g>
		</g>
		<g>
			<path class="st0" d="M21.4,74l0-2.5l0.1,0c0.2,0.6,0.4,1.1,0.6,1.5c0.4,0.7,1,1,1.7,1c0.5,0,0.8-0.2,1.2-0.5s0.5-0.7,0.5-1.2
				c0-0.2,0-0.4-0.1-0.6c-0.1-0.2-0.2-0.4-0.3-0.6c-0.1-0.2-0.3-0.3-0.5-0.5c-0.2-0.1-0.5-0.3-1-0.6c-0.4-0.2-0.7-0.4-0.9-0.5
				c-0.2-0.1-0.4-0.3-0.5-0.4c-0.3-0.4-0.5-0.8-0.5-1.4c0-0.3,0.1-0.7,0.2-1c0.1-0.3,0.3-0.6,0.6-0.8c0.4-0.4,0.9-0.6,1.5-0.6
				c0.2,0,0.4,0,0.5,0.1c0.2,0,0.4,0.1,0.6,0.2c0.2,0.1,0.3,0.1,0.4,0.2c0.1,0,0.1,0,0.2,0c0.1,0,0.2-0.1,0.3-0.3h0.1l0,2.4h-0.1
				c-0.1-0.4-0.2-0.7-0.3-0.9c-0.1-0.2-0.2-0.4-0.3-0.6c-0.2-0.3-0.4-0.5-0.7-0.7c-0.2-0.2-0.5-0.2-0.8-0.2c-0.5,0-0.8,0.2-1.1,0.5
				c-0.1,0.1-0.2,0.3-0.3,0.4c-0.1,0.2-0.1,0.3-0.1,0.5c0,0.7,0.4,1.2,1.3,1.6l0.9,0.4c0.7,0.3,1.1,0.7,1.4,1
				c0.3,0.4,0.5,0.9,0.5,1.5c0,0.4-0.1,0.7-0.2,1.1c-0.2,0.5-0.5,0.8-0.9,1.1c-0.4,0.3-0.9,0.4-1.5,0.4c-0.5,0-1-0.1-1.5-0.3
				c-0.3-0.1-0.4-0.2-0.4-0.2c0,0-0.1,0-0.2,0c-0.2,0-0.3,0.1-0.4,0.3H21.4z"/>
			<path class="st0" d="M31.7,69.6H36v-1.9c0-0.4,0-0.7-0.1-0.9c0-0.2-0.1-0.4-0.3-0.5c-0.1-0.1-0.2-0.2-0.4-0.3
				c-0.1-0.1-0.3-0.1-0.6-0.1v-0.1h3.9v0.1c-0.2,0-0.4,0-0.6,0.1c-0.1,0.1-0.3,0.1-0.4,0.3c-0.1,0.1-0.2,0.3-0.3,0.5
				c0,0.2-0.1,0.5-0.1,0.9v4.5c0,0.4,0,0.7,0.1,0.9c0,0.2,0.1,0.4,0.3,0.5c0.1,0.1,0.2,0.2,0.4,0.3c0.1,0.1,0.3,0.1,0.6,0.1v0.1
				h-3.9v-0.1c0.2,0,0.4,0,0.6-0.1c0.1-0.1,0.3-0.1,0.4-0.3c0.1-0.1,0.2-0.3,0.3-0.5c0-0.2,0.1-0.5,0.1-0.9v-2.2h-4.3v2.2
				c0,0.4,0,0.7,0.1,0.9c0,0.2,0.1,0.4,0.3,0.5c0.1,0.1,0.2,0.2,0.4,0.3c0.1,0.1,0.3,0.1,0.6,0.1v0.1h-3.9v-0.1c0.2,0,0.4,0,0.6-0.1
				c0.1-0.1,0.3-0.1,0.4-0.3c0.1-0.1,0.2-0.3,0.3-0.5c0-0.2,0.1-0.5,0.1-0.9v-4.5c0-0.4,0-0.7-0.1-0.9c0-0.2-0.1-0.4-0.3-0.5
				c-0.1-0.1-0.2-0.2-0.4-0.3c-0.1-0.1-0.3-0.1-0.6-0.1v-0.1h3.9v0.1c-0.2,0-0.4,0-0.6,0.1c-0.1,0.1-0.3,0.1-0.4,0.3
				c-0.1,0.1-0.2,0.3-0.3,0.5c0,0.2-0.1,0.5-0.1,0.9V69.6z"/>
			<path class="st0" d="M49.2,74.1h-4v-0.1c0.4,0,0.6-0.1,0.8-0.2c0.3-0.2,0.4-0.4,0.4-0.7c0-0.2-0.1-0.4-0.2-0.7L46,72.2l-0.6-1.4
				h-2.7l-0.3,0.8l-0.2,0.4c-0.2,0.4-0.3,0.8-0.3,1c0,0.1,0,0.3,0.1,0.4c0.1,0.1,0.2,0.2,0.3,0.3c0.2,0.1,0.4,0.2,0.6,0.2v0.1h-2.7
				v-0.1c0.2,0,0.4-0.1,0.6-0.2c0.2-0.1,0.3-0.2,0.5-0.4c0.1-0.2,0.3-0.4,0.4-0.6c0.1-0.3,0.3-0.7,0.5-1.2l2.2-5.7h0.3l2.6,6.4
				c0.2,0.5,0.4,0.8,0.5,1c0.1,0.2,0.2,0.4,0.4,0.5c0.1,0.1,0.2,0.1,0.3,0.2c0.1,0,0.3,0.1,0.6,0.1V74.1z M45.3,70.5l-1.3-3.1
				l-1.2,3.1H45.3z"/>
			<path class="st0" d="M52.4,66.9v5.3c0,0.4,0,0.7,0.1,0.9c0,0.2,0.1,0.4,0.3,0.5c0.1,0.1,0.2,0.2,0.4,0.3c0.1,0.1,0.3,0.1,0.6,0.1
				v0.1h-2.8v-0.1c0.2,0,0.4,0,0.6-0.1c0.1-0.1,0.3-0.1,0.4-0.3c0.1-0.1,0.2-0.3,0.3-0.5c0-0.2,0.1-0.5,0.1-0.9v-4.5
				c0-0.4,0-0.7-0.1-0.9c0-0.2-0.1-0.4-0.3-0.5c-0.1-0.1-0.2-0.2-0.4-0.3c-0.1-0.1-0.3-0.1-0.6-0.1v-0.1h2.3l4.9,6.3v-4.4
				c0-0.4,0-0.7-0.1-0.9c0-0.2-0.1-0.4-0.3-0.5c-0.1-0.1-0.2-0.2-0.4-0.3c-0.1-0.1-0.3-0.1-0.6-0.1v-0.1h2.8v0.1
				c-0.4,0-0.7,0.1-0.9,0.4c-0.1,0.1-0.2,0.3-0.3,0.5c0,0.2-0.1,0.5-0.1,0.9v6.4h-0.3L52.4,66.9z"/>
			<path class="st0" d="M68.3,65.8l0.1,2l-0.1,0c-0.1-0.3-0.1-0.6-0.3-0.8c-0.1-0.2-0.3-0.4-0.5-0.6c-0.2-0.1-0.4-0.2-0.7-0.3
				c-0.3-0.1-0.6-0.1-1-0.1h-1.4v3.6h0.4c0.4,0,0.6,0,0.8-0.1c0.2,0,0.3-0.1,0.5-0.3c0.1-0.1,0.2-0.3,0.3-0.4
				c0.1-0.2,0.1-0.4,0.1-0.7l0.1,0l0,3.3h-0.1c0-0.3-0.1-0.6-0.2-0.8c-0.1-0.2-0.2-0.4-0.3-0.5c-0.1-0.1-0.3-0.2-0.5-0.3
				c-0.2-0.1-0.4-0.1-0.7-0.1h-0.3v1.4c0,0.6,0,1,0,1.2c0,0.3,0.1,0.5,0.2,0.6c0.1,0.3,0.3,0.5,0.6,0.6c0.3,0.1,0.7,0.2,1.1,0.2
				c0.5,0,0.9-0.1,1.2-0.2c0.3-0.1,0.6-0.3,0.8-0.6c0.1-0.2,0.3-0.4,0.4-0.6c0.1-0.2,0.2-0.5,0.3-0.9l0.1,0l-0.1,2.4h-7.2v-0.1
				c0.2,0,0.4,0,0.6-0.1c0.1-0.1,0.3-0.1,0.4-0.3c0.1-0.1,0.2-0.3,0.3-0.5c0-0.2,0.1-0.5,0.1-0.9v-4.5c0-0.4,0-0.7-0.1-0.9
				c0-0.2-0.1-0.4-0.3-0.5c-0.1-0.1-0.2-0.2-0.4-0.3c-0.1-0.1-0.3-0.1-0.6-0.1v-0.1H68.3z"/>
		</g>
	</g>
</g>
</svg>
