<?xml version="1.0" encoding="utf-8"?>
<!-- Generator: Adobe Illustrator 19.2.1, SVG Export Plug-In . SVG Version: 6.00 Build 0)  -->
<svg version="1.1" id="圖層_1" xmlns="http://www.w3.org/2000/svg" xmlns:xlink="http://www.w3.org/1999/xlink" x="0px" y="0px"
	 viewBox="0 0 220.3 158.7" style="enable-background:new 0 0 220.3 158.7;" xml:space="preserve">
<style type="text/css">
	.st0{fill:none;stroke:#FFFFFF;stroke-width:5;stroke-miterlimit:10;}
	.st1{fill:#00246A;}
	.st2{fill:#EB0029;}
	.st3{fill:#FFFFFF;}
</style>
<polygon class="st0" points="2.8,2.9 2.8,56.6 2.8,102.6 2.8,156.3 217.5,156.3 217.5,102.6 217.5,56.6 217.5,2.9 "/>
<g>
	<rect x="2.8" y="2.9" class="st1" width="214.7" height="153.4"/>
	<path class="st2" d="M46.6,102.6H2.8v-46H86l-35.1,51.8L46.6,102.6z M173.7,102.6h43.8v-46h-83.2l35.1,51.8L173.7,102.6z"/>
	<path class="st3" d="M134.1,67.9l-24,32.2l-24-32.2L73.4,78c0,0,25.3,33.6,29.9,39.2c1.9,2.3,4.2,3.6,6.8,3.6
		c2.5,0,4.8-1.3,6.8-3.6c4.6-5.6,29.9-39.2,29.9-39.2L134.1,67.9z"/>
	<path class="st3" d="M110.1,43.2l51.1,77.6l11.8-13.1l-56.3-83.2c-1.5-2.2-4-3.4-6.6-3.4c-2.6,0-5.1,1.3-6.6,3.4l-56.3,83.2
		L59,120.8L110.1,43.2z"/>
	<path class="st3" d="M110.1,18.3c-42.4,0-76.7,27.5-76.7,61.4c0,33.9,34.3,61.4,76.7,61.4c42.4,0,76.7-27.5,76.7-61.4
		C186.8,45.7,152.5,18.3,110.1,18.3 M110.1,133.3c-37.2,0-67.5-24.1-67.5-53.7c0-29.6,30.3-53.7,67.5-53.7
		c37.2,0,67.5,24.1,67.5,53.7C177.6,109.2,147.3,133.3,110.1,133.3"/>
</g>
</svg>
