<svg id="圖層_1" data-name="圖層 1" xmlns="http://www.w3.org/2000/svg" viewBox="0 0 32 32"><defs><style>.cls-1{fill:#c7ccd3;}</style></defs><title>工作區域 1</title><g id="圖層_3" data-name="圖層 3"><path class="cls-1" d="M22.58,10.84H22C22,7,19.35,3.9,16,3.9s-6,3.15-6,6.94H9.42a2,2,0,0,0-1.93,1.94v12a2,2,0,0,0,1.93,1.93H22.58a2,2,0,0,0,1.93-1.93v-12A2,2,0,0,0,22.58,10.84Zm-4.93,8.63v2.26A1.62,1.62,0,0,1,16,23.35H16a1.62,1.62,0,0,1-1.61-1.62h0V19.47a2.9,2.9,0,1,1,4-.72Zm2.1-8.63H12.17v-.49c0-2.5,1.61-4.43,3.79-4.43s3.87,1.93,3.87,4.52A.87.87,0,0,1,19.75,10.84Z"/></g></svg>