<svg xmlns="http://www.w3.org/2000/svg" viewBox="0 0 34 34"><defs><style>.cls-1{fill:#0562ad;}.cls-2{fill:#fff;}.cls-3{fill:#035891;}</style></defs><title>工作區域 60</title><g id="圖層_5" data-name="圖層 5"><rect class="cls-1" width="34" height="34" rx="5.81"/><g id="Tube"><path class="cls-2" d="M28.76,11.55A3.15,3.15,0,0,0,26,8.72c-.9-.15-5.23-.42-8.66-.5h0c-3.44-.08-7.77,0-8.68.1A3.12,3.12,0,0,0,5.69,11a44.78,44.78,0,0,0-.49,5.22v.28a45.31,45.31,0,0,0,.24,5.23,3.13,3.13,0,0,0,2.8,2.83c.9.16,5.23.43,8.67.51h0c3.44.08,7.78,0,8.69-.1a3.15,3.15,0,0,0,2.93-2.7A45.48,45.48,0,0,0,29,17.07v-.28A45.49,45.49,0,0,0,28.76,11.55Z"/></g><polygon id="Play" class="cls-1" points="14.71 13.18 20.95 16.62 14.55 19.94 14.71 13.18"/><polygon id="Shadow" class="cls-3" points="14.71 13.18 20.95 16.62 20.22 17 14.71 13.18"/></g></svg>